<svg xmlns="http://www.w3.org/2000/svg" xmlns:xlink="http://www.w3.org/1999/xlink" id="svg3248" width="63" height="7" version="1.1"><defs id="defs3250"><linearGradient id="linearGradient5486-6" x1="46" x2="61" y1="1048.9" y2="1048.9" gradientUnits="userSpaceOnUse"><stop id="stop5482-5" offset="0" stop-color="#e72904"/><stop id="stop5484-3" offset="1" stop-color="#9f250d"/></linearGradient><linearGradient id="linearGradient5478-5" x1="26" x2="45" y1="1048.9" y2="1048.9" gradientUnits="userSpaceOnUse"><stop id="stop5474-2" offset="0" stop-color="#b2cb08"/><stop id="stop5476-9" offset="1" stop-color="#d0f103"/></linearGradient><linearGradient id="linearGradient6106" x1="2" x2="25" y1="1048.9" y2="1048.9" gradientUnits="userSpaceOnUse"><stop id="stop5444-7" offset="0" stop-color="#127a12"/><stop id="stop5446-0" offset="1" stop-color="#08c408"/></linearGradient></defs><g id="g5428" fill="url(#linearGradient6106)" transform="translate(0 -1045.4)"><rect id="use5308" width="1" height="3" x="2" y="1047.4" color="#000"/><rect id="use5310" width="1" height="3" x="4" y="1047.4" color="#000"/><rect id="use5312" width="1" height="3" x="6" y="1047.4" color="#000"/><rect id="use5314" width="1" height="3" x="8" y="1047.4" color="#000"/><rect id="use5316" width="1" height="3" x="10" y="1047.4" color="#000"/><rect id="use5318" width="1" height="3" x="12" y="1047.4" color="#000"/><rect id="use5320" width="1" height="3" x="14" y="1047.4" color="#000"/><rect id="use5322" width="1" height="3" x="16" y="1047.4" color="#000"/><rect id="use5324" width="1" height="3" x="18" y="1047.4" color="#000"/><rect id="use5326" width="1" height="3" x="20" y="1047.4" color="#000"/><rect id="use5328" width="1" height="3" x="22" y="1047.4" color="#000"/><rect id="use5330" width="1" height="3" x="24" y="1047.4" color="#000"/></g><g id="g5450" fill="url(#linearGradient5478-5)" transform="translate(0 -1045.4)"><rect id="use5332" width="1" height="3" x="26" y="1047.4" color="#000"/><rect id="use5334" width="1" height="3" x="28" y="1047.4" color="#000"/><rect id="use5336" width="1" height="3" x="30" y="1047.4" color="#000"/><rect id="use5338" width="1" height="3" x="32" y="1047.4" color="#000"/><rect id="use5340" width="1" height="3" x="34" y="1047.4" color="#000"/><rect id="use5342" width="1" height="3" x="36" y="1047.4" color="#000"/><rect id="use5344" width="1" height="3" x="38" y="1047.4" color="#000"/><rect id="use5346" width="1" height="3" x="40" y="1047.4" color="#000"/><rect id="use5348" width="1" height="3" x="42" y="1047.4" color="#000"/><rect id="use5350" width="1" height="3" x="44" y="1047.4" color="#000"/></g><g id="g5462" fill="url(#linearGradient5486-6)" transform="translate(0 -1045.4)"><rect id="use5352" width="1" height="3" x="46" y="1047.4" color="#000"/><rect id="use5354" width="1" height="3" x="48" y="1047.4" color="#000"/><rect id="use5356" width="1" height="3" x="50" y="1047.4" color="#000"/><rect id="use5358" width="1" height="3" x="52" y="1047.4" color="#000"/><rect id="use5360" width="1" height="3" x="54" y="1047.4" color="#000"/><rect id="use5362" width="1" height="3" x="56" y="1047.4" color="#000"/><rect id="use5364" width="1" height="3" x="58" y="1047.4" color="#000"/><rect id="use5366" width="1" height="3" x="60" y="1047.4" color="#000"/></g></svg>