<svg xmlns="http://www.w3.org/2000/svg" xmlns:xlink="http://www.w3.org/1999/xlink" width="160" height="40" version="1.1"><defs><linearGradient id="e" x1="74.993" x2="13.486" y1="-.146" y2="88.767" gradientTransform="matrix(.4467 0 0 .4487 123.41 .013019)" gradientUnits="userSpaceOnUse"><stop offset=".478" stop-color="#39b549"/><stop offset="1" stop-color="#1a76bc"/></linearGradient><linearGradient id="d" x1="74.998" x2="13.488" y1="-.15" y2="88.767" gradientTransform="matrix(.4467 0 0 .4487 68.726 .013019)" gradientUnits="userSpaceOnUse"><stop offset="0" stop-color="#381f1f"/><stop offset=".002" stop-color="#3a1f20"/><stop offset=".038" stop-color="#5b2825"/><stop offset=".076" stop-color="#7c2f28"/><stop offset=".117" stop-color="#9b2e28"/><stop offset=".163" stop-color="#b62c28"/><stop offset=".213" stop-color="#cc2626"/><stop offset=".271" stop-color="#dc2225"/><stop offset=".344" stop-color="#e81f25"/><stop offset=".478" stop-color="#ed1b26"/><stop offset="1" stop-color="#f7921e"/></linearGradient><linearGradient id="c" x1="74.992" x2="13.485" y1="-.147" y2="88.766" gradientTransform="matrix(.4467 0 0 .4487 96.071 .013019)" gradientUnits="userSpaceOnUse"><stop offset="0" stop-color="#120e1e"/><stop offset=".023" stop-color="#1b1426"/><stop offset=".145" stop-color="#442349"/><stop offset=".255" stop-color="#652866"/><stop offset=".351" stop-color="#7c287b"/><stop offset=".429" stop-color="#8b2589"/><stop offset=".478" stop-color="#91268f"/><stop offset="1" stop-color="#ed1b26"/></linearGradient><linearGradient id="a" x2="0" y1=".028" y2="89.146" gradientUnits="userSpaceOnUse"><stop offset="0" stop-color="#ffd235"/><stop offset="1" stop-color="#feb30a"/></linearGradient><linearGradient id="m" x2="0" y1=".028" y2="89.146" gradientTransform="matrix(.4467 0 0 .4487 65.950788 .01288623)" gradientUnits="userSpaceOnUse" xlink:href="#a"/><linearGradient id="k" x2="0" y1=".028" y2="89.146" gradientTransform="matrix(.4467 0 0 .4487 93.288828 .01288623)" gradientUnits="userSpaceOnUse" xlink:href="#a"/><linearGradient id="i" x2="0" y1=".028" y2="89.146" gradientTransform="matrix(.4467 0 0 .4487 120.63134 .01288623)" gradientUnits="userSpaceOnUse" xlink:href="#a"/><linearGradient id="g" x2="0" y1=".028" y2="89.146" gradientTransform="matrix(.4467 0 0 .4487 51.508977 .01288623)" gradientUnits="userSpaceOnUse" xlink:href="#a"/><linearGradient id="f" x2="0" y1=".028" y2="89.146" gradientTransform="matrix(.4467 0 0 .4487 0 .01288623)" gradientUnits="userSpaceOnUse" xlink:href="#a"/><linearGradient id="l" x2="0" y1=".028" y2="89.146" gradientTransform="matrix(.4467 0 0 .4487 65.950788 .01288623)" gradientUnits="userSpaceOnUse" xlink:href="#b"/><linearGradient id="b" x2="0" y1=".028" y2="89.146" gradientUnits="userSpaceOnUse"><stop offset="0" stop-color="#ffd235"/><stop offset="1" stop-color="#feb30a"/></linearGradient><linearGradient id="j" x2="0" y1=".028" y2="89.146" gradientTransform="matrix(.4467 0 0 .4487 93.288828 .01288623)" gradientUnits="userSpaceOnUse" xlink:href="#b"/><linearGradient id="h" x2="0" y1=".028" y2="89.146" gradientTransform="matrix(.4467 0 0 .4487 120.63134 .01288623)" gradientUnits="userSpaceOnUse" xlink:href="#b"/></defs><path fill="url(#e)" d="m120.63 40 27.298-39.987h12.066l-27.293 39.987h-12.071z"/><path fill="url(#d)" d="m65.946 40 27.296-39.987h12.073l-27.293 39.987h-12.076z"/><path fill="url(#c)" d="m93.291 40 27.298-39.987h12.067l-27.294 39.987h-12.071z"/><g stroke="#0f0f0f" stroke-width="1.6"><path fill="url(#l)" d="m105.31533 40.000133-27.293368-39.98724677h-12.071174l27.291583 39.98724677z"/><path fill="url(#j)" d="m132.65784 40.000133-27.29828-39.98724677h-12.070732l27.297832 39.98724677z"/><path fill="url(#h)" d="m160.0008 40.000133-27.29829-39.98724677h-12.07117l27.29828 39.98724677z"/></g><g stroke-width=".448"><path fill="url(#m)" d="m105.31533 40.000133-27.293368-39.98724677h-12.071174l27.291583 39.98724677z"/><path fill="url(#k)" d="m132.65784 40.000133-27.29828-39.98724677h-12.070732l27.297832 39.98724677z"/><path fill="url(#i)" d="m160.0008 40.000133-27.29829-39.98724677h-12.07117l27.29828 39.98724677z"/><path fill="url(#g)" fill-rule="evenodd" d="m51.508977.01288623h10.325471v39.98724677h-10.325471z"/><path fill="url(#f)" d="m10.124456 40.000133v-23.416756l13.077589 19.939331h.26668l13.213386-20.142143v23.619568h10.260252v-39.98724677h-11.129977l-12.343661 19.93888177-12.337408-19.93888177h-11.131317v39.98724677z"/></g></svg>