<svg xmlns="http://www.w3.org/2000/svg" id="svg5498" width="107" height="25" version="1.1" viewBox="0 0 107 25"><defs id="defs5500"><linearGradient id="SVGID_50_" x1="74.096" x2="74.096" y1="283.01" y2="240.3" gradientUnits="userSpaceOnUse"><stop id="stop4854" offset="0" stop-color="#1F1F20"/><stop id="stop4856" offset="1" stop-color="#A5A8AA"/></linearGradient><linearGradient id="SVGID_51_" x1="97.754" x2="97.754" y1="283.01" y2="240.3" gradientUnits="userSpaceOnUse"><stop id="stop4861" offset="0" stop-color="#1F1F20"/><stop id="stop4863" offset="1" stop-color="#A5A8AA"/></linearGradient><linearGradient id="SVGID_52_" x1="121.41" x2="121.41" y1="283.01" y2="240.3" gradientUnits="userSpaceOnUse"><stop id="stop4868" offset="0" stop-color="#1F1F20"/><stop id="stop4870" offset="1" stop-color="#A5A8AA"/></linearGradient><linearGradient id="SVGID_53_" x1="49.035" x2="49.035" y1="283.01" y2="240.3" gradientUnits="userSpaceOnUse"><stop id="stop4875" offset="0" stop-color="#1F1F20"/><stop id="stop4877" offset="1" stop-color="#A5A8AA"/></linearGradient><linearGradient id="SVGID_54_" x1="20.309" x2="20.309" y1="283.01" y2="240.3" gradientUnits="userSpaceOnUse"><stop id="stop4882" offset="0" stop-color="#1F1F20"/><stop id="stop4884" offset="1" stop-color="#A5A8AA"/></linearGradient><linearGradient id="SVGID_49_" x1="109.71" x2="85.934" y1="244.09" y2="278.45" gradientUnits="userSpaceOnUse"><stop id="stop4833" offset="0" stop-color="#130E1E"/><stop id="stop4835" offset=".023" stop-color="#1C1426"/><stop id="stop4837" offset=".145" stop-color="#442349"/><stop id="stop4839" offset=".255" stop-color="#652966"/><stop id="stop4841" offset=".351" stop-color="#7C287A"/><stop id="stop4843" offset=".429" stop-color="#8B2688"/><stop id="stop4845" offset=".478" stop-color="#91278F"/><stop id="stop4847" offset="1" stop-color="#ED1C24"/></linearGradient><linearGradient id="SVGID_48_" x1="86.049" x2="62.275" y1="244.09" y2="278.46" gradientUnits="userSpaceOnUse"><stop id="stop4808" offset="0" stop-color="#381F1F"/><stop id="stop4810" offset=".002" stop-color="#3A1F20"/><stop id="stop4812" offset=".038" stop-color="#5B2926"/><stop id="stop4814" offset=".076" stop-color="#7C2F28"/><stop id="stop4816" offset=".117" stop-color="#9B3029"/><stop id="stop4818" offset=".163" stop-color="#B62E28"/><stop id="stop4820" offset=".213" stop-color="#CC2927"/><stop id="stop4822" offset=".271" stop-color="#DC2325"/><stop id="stop4824" offset=".344" stop-color="#E81F25"/><stop id="stop4826" offset=".478" stop-color="#ED1C24"/><stop id="stop4828" offset="1" stop-color="#F7931E"/></linearGradient><linearGradient id="SVGID_47_" x1="133.36" x2="109.59" y1="244.09" y2="278.45" gradientUnits="userSpaceOnUse"><stop id="stop4801" offset=".478" stop-color="#39B54A"/><stop id="stop4803" offset="1" stop-color="#1B75BC"/></linearGradient></defs><g id="layer1" transform="translate(-309.42 -348.79)"><polygon id="polygon4805" fill="url(#SVGID_47_)" points="104.38 278.59 128 244.15 138.44 244.15 114.82 278.59" transform="matrix(.76849 0 0 .72579 309.42 171.59)"/><polygon id="polygon4830" fill="url(#SVGID_48_)" points="57.062 278.59 80.68 244.15 91.126 244.15 67.51 278.59" transform="matrix(.76849 0 0 .72579 309.42 171.59)"/><polygon id="polygon4849" fill="url(#SVGID_49_)" points="80.722 278.59 104.34 244.15 114.78 244.15 91.167 278.59" transform="matrix(.76849 0 0 .72579 309.42 171.59)"/><g id="g4851" transform="matrix(.76849 0 0 .72579 309.42 171.59)"><polygon id="polygon4858" fill="url(#SVGID_50_)" points="91.126 278.59 67.51 244.15 57.065 244.15 80.68 278.59"/><polygon id="polygon4865" fill="url(#SVGID_51_)" points="114.79 278.59 91.167 244.15 80.722 244.15 104.34 278.59"/><polygon id="polygon4872" fill="url(#SVGID_52_)" points="138.44 278.59 114.82 244.15 104.38 244.15 128 278.59"/><rect id="rect4879" width="8.934" height="34.445" x="44.568" y="244.15" fill="url(#SVGID_53_)"/><polygon id="polygon4886" fill="url(#SVGID_54_)" points="31.74 258.24 31.74 278.59 40.618 278.59 40.618 244.15 30.988 244.15 20.307 261.32 9.631 244.15 0 244.15 0 278.59 8.76 278.59 8.76 258.42 20.076 275.6 20.307 275.6"/></g></g></svg>