<svg xmlns="http://www.w3.org/2000/svg" id="svg2" width="48" height="48" version="1.1" viewBox="0 0 48 48"><path id="path6" fill="none" d="m0 2h48v48h-48z"/><path id="path4-9" fill="none" d="m48-2e-7h48v48h-48z"/><g id="g6137" transform="translate(-1.582 -.40981)"><g id="g6198" transform="translate(-.576)"><path id="path4" fill="none" stroke-width=".98" d="m2.158 1.3446h48v46.13h-48z"/><path id="path6269" fill="#d2d2d2" stroke-width=".98" d="m28.158 4.2278h-4v19.221h4z"/><path id="path1420" fill="#d2d2d2" stroke-width="1.132" d="m17.11 43.724 10.848-6.9432-8.4802-9.8746-2.368 16.818z"/><path id="path6273" fill-opacity="0" stroke="#d2d2d2" stroke-linecap="round" stroke-width="2.821" d="m18.574 35.736c-5.6066-1.9043-8.358-7.1238-8.6508-12.269-0.29284-5.1447 2.6021-10.747 7.2869-12.399" style="paint-order:normal"/><path id="path6273-8" fill-opacity="0" stroke="#d2d2d2" stroke-linecap="round" stroke-width="2.821" d="m-31.585 36.378c-6.9278-1.7827-9.0727-6.3002-9.875-11.796-0.80229-5.4958 1.8492-11.753 7.1474-13.5" transform="scale(-1,1)" style="paint-order:normal"/></g></g></svg>