<svg xmlns="http://www.w3.org/2000/svg" width="50" height="24" version="1.1"><g display="none" opacity=".329" transform="translate(0,-4)"><rect width="5" height="23.5" x="21.5" y="2.25" fill="#0872e8" stroke="#000" stroke-width=".5" rx="2" ry="2"/></g><g fill="#828282"><path d="m3.9999 4h2v16h-2z"/><path d="m7.9999 7.8559h2v12.144h-2z"/><path d="m12 11h2v9h-2z"/><path d="m16 12.763h2v7.2373h-2z"/><path d="m20 13.428h2v6.572h-2z"/><path d="m24 4h2v18h-2z"/><path d="m46 4h-2v16h2z"/><path d="m42 7.8559h-2v12.144h2z"/><path d="m38 11h-2v9h2z"/><path d="m34 12.763h-2v7.2373h2z"/><path d="m30 13.428h-2v6.572h2z"/></g><path fill="none" stroke="#ccc" stroke-linecap="round" stroke-width="2" d="m4.0142 19h41.971"/></svg>