<svg xmlns="http://www.w3.org/2000/svg" xmlns:xlink="http://www.w3.org/1999/xlink" id="svg2" width="22" height="28" version="1.1"><rect id="rect3893" width="1" height="18" x="-12" y="2" fill="#888" rx=".5" ry=".45" transform="rotate(-90)"/><rect id="rect3895" width="11" height="2" x="-16" y="7" fill="#888" rx="1" ry="1" transform="rotate(-90)"/><g id="g3891" fill="#888" transform="matrix(1.2879 0 0 1.2879 -7.0307 -2.8256)"><path id="path3897" d="m7.4246 5.8371a1.591 1.591 0 1 1-3.182 0 1.591 1.591 0 1 1 3.182 0z" transform="matrix(0 -.94281 .94281 0 2.9968 24)"/><path id="path3897-5" d="m7.4246 5.8371a1.591 1.591 0 1 1-3.182 0 1.591 1.591 0 1 1 3.182 0z" transform="matrix(0 -.94281 .94281 0 8.4968 24)"/><path id="path3897-5-6" d="m7.4246 5.8371a1.591 1.591 0 1 1-3.182 0 1.591 1.591 0 1 1 3.182 0z" transform="matrix(0 -.94281 .94281 0 13.997 24)"/></g></svg>