<svg xmlns="http://www.w3.org/2000/svg" xmlns:xlink="http://www.w3.org/1999/xlink" id="svg2" width="20" height="20" version="1.1"><rect id="rect3893" width="1" height="14" x="13.5" y="3" fill="#888" rx=".5" ry=".5"/><rect id="rect3895" width="8" height="2" x="10" y="6" fill="#888" rx="1" ry="1"/><path id="path3897" fill="#888" d="m7.4246 5.8371a1.591 1.591 0 1 1-3.182 0 1.591 1.591 0 1 1 3.182 0z" transform="matrix(.94281 0 0 .94281 1.3025e-7 -1.0032)"/><path id="path3897-5" fill="#888" d="m7.4246 5.8371a1.591 1.591 0 1 1-3.182 0 1.591 1.591 0 1 1 3.182 0z" transform="matrix(.94281 0 0 .94281 1.3025e-7 4.4968)"/><path id="path3897-5-6" fill="#888" d="m7.4246 5.8371a1.591 1.591 0 1 1-3.182 0 1.591 1.591 0 1 1 3.182 0z" transform="matrix(.94281 0 0 .94281 1.3025e-7 9.9968)"/></svg>