<svg xmlns="http://www.w3.org/2000/svg" width="34" height="34" version="1.1"><defs><linearGradient id="b" x1="1" x2="25" y1="13" y2="13" gradientTransform="matrix(1.3478261 0 0 1.3478261 -.52170877 -34.52178)" gradientUnits="userSpaceOnUse"><stop offset="0" stop-color="#333"/><stop offset=".499" stop-color="#333"/><stop offset="1" stop-color="#232323"/></linearGradient><linearGradient id="a" x1="2" x2="24" y1="12" y2="12" gradientTransform="matrix(1.3478261 0 0 1.3478261 -.5217492 -31.826087)" gradientUnits="userSpaceOnUse"><stop offset="0" stop-opacity=".005"/><stop offset=".5" stop-opacity="0"/><stop offset="1" stop-opacity=".475"/></linearGradient></defs><rect width="31" height="31" x="1.5" y="-32.5" fill="url(#a)" color="#000" rx="1.5" ry="1.5" transform="rotate(90)"/><path fill="#020201" d="m32.313235 2.17593c.11592.25262.185548.52951.18555.82422l.000225 28c9e-6 1.0994-.9006 1.965577-2 1.965572l-27.49901-.00012c-.6598637-3e-6-1.135675-.352003-1.325-.511743.2090942.790888.7641575 1.546137 1.8242 1.546141l27.99979 1e-4c1.108 4e-6 2.000009-.892 2-2l-.000225-28c-7e-6-.81658-.48717-1.5129-1.1855-1.8242z"/><rect width="31" height="31" x="1.5" y="-32.5" fill="none" stroke="url(#b)" stroke-linecap="round" stroke-linejoin="round" rx=".3" ry=".3" transform="rotate(90)" style="paint-order:fill markers stroke"/><rect width="30" height="30" x="2" y="-32" fill-opacity=".09" color="#000" transform="rotate(90)"/></svg>