<svg xmlns="http://www.w3.org/2000/svg" width="18" height="26" version="1.1"><defs><linearGradient id="b" x1="1.422" x2="24.143" y1="19.7" y2="19.7" gradientTransform="matrix(1 0 0 .65217391 3.0040741e-5 -17.47828)" gradientUnits="userSpaceOnUse"><stop offset="0" stop-color="#393939"/><stop offset=".301" stop-color="#393939"/><stop offset="1" stop-color="#141414"/></linearGradient><linearGradient id="a" x1="2" x2="24" y1="12" y2="12" gradientTransform="matrix(1 0 0 .65217391 0 -16.173913)" gradientUnits="userSpaceOnUse"><stop offset="0" stop-opacity=".005"/><stop offset=".5" stop-opacity="0"/><stop offset="1" stop-opacity=".475"/></linearGradient></defs><path d="m17 2.708984v21.291016c0 .545351-.454649 1-1 1h-14c-.043374 0-.073191.0036-.1152344-.002.2892095.571048.7949947 1.002 1.6152344 1.002h12c1.108 0 2-.892 2-2v-20.0000004c0-.4998619-.19821-.9420109-.5-1.2910156z"/><rect width="23" height="15" x="1.5" y="-16.5" fill="url(#a)" color="#000" rx="1.5" ry=".978" transform="rotate(90)"/><rect width="23" height="15" x="1.5" y="-16.5" fill="none" stroke="url(#b)" stroke-linecap="round" stroke-linejoin="round" rx=".3" ry=".196" transform="rotate(90)" style="paint-order:fill markers stroke"/><rect width="22" height="14" x="2" y="-16" fill-opacity=".09" color="#000" transform="rotate(90)"/></svg>