<svg xmlns="http://www.w3.org/2000/svg" width="42" height="26" version="1.1"><defs><linearGradient id="c" x1="1" x2="25" y1="13" y2="13" gradientTransform="matrix(.99999998 0 0 1.6956522 2.4812674e-8 -43.043529)" gradientUnits="userSpaceOnUse"><stop offset="0" stop-opacity="0"/><stop offset=".301" stop-color="#090909" stop-opacity="0"/><stop offset="1" stop-opacity=".449"/></linearGradient><linearGradient id="d" x1="1.51" x2="24.381" y1="12" y2="12" gradientTransform="matrix(.95652174 0 0 1.6521739 .56518861 -39.173916)" gradientUnits="userSpaceOnUse"><stop offset="0" stop-opacity=".005"/><stop offset=".544" stop-opacity="0"/><stop offset="1" stop-opacity=".471"/></linearGradient></defs><rect width="22" height="38" x="2" y="-40" fill="url(#d)" stroke-width="1" color="#000" transform="rotate(90)"/><path d="m40.999953 2.7084922v20.9902348c0 .711551-.58923 1.300771-1.300781 1.300781l-37.3983908.000492c-.1572625 2e-6-.3069938-.03341-.4472656-.08594.2830595.59834.79839 1.085938 1.6464844 1.08594l35.998-.000492c1.108 2e-6 2-.892 2-2v-20.0000002c0-.4998619-.196257-.9420109-.498047-1.2910156z"/><rect width="23" height="39" x="1.5" y="-40.5" fill="none" stroke="url(#c)" stroke-linecap="round" stroke-linejoin="round" rx=".8" ry=".637" transform="rotate(90)" style="paint-order:fill markers stroke"/></svg>