<svg xmlns="http://www.w3.org/2000/svg" width="25" height="25" version="1.1"><defs><linearGradient id="b" x1="1.422" x2="24.143" y1="19.7" y2="19.7" gradientTransform="translate(-.99996996 -25.00003)" gradientUnits="userSpaceOnUse"><stop offset="0" stop-color="#393939"/><stop offset=".301" stop-color="#393939"/><stop offset="1" stop-color="#141414"/></linearGradient><linearGradient id="a" x1=".5" x2="23.5" y1="12" y2="12" gradientTransform="translate(-1,-23)" gradientUnits="userSpaceOnUse"><stop offset="0" stop-opacity=".176"/><stop offset=".127" stop-opacity=".005"/><stop offset=".543" stop-opacity="0"/><stop offset="1" stop-opacity=".475"/></linearGradient></defs><rect width="23" height="23" x=".5" y="-23.5" fill="url(#a)" color="#000" transform="rotate(90)"/><rect width="24" height="24" x=".5" y=".5" fill="none" stroke="#111" stroke-linecap="square" style="paint-order:fill markers stroke"/><path fill="#020201" d="m23.31367 1.17583c.11592.25262.18555.52951.18555.82422v20c0 1.0994-.9006 1.965573-2 1.965572l-19.49922-2e-5c-.6598637-1e-6-1.135675-.352003-1.325-.511743.2090942.790888.7641575 1.546141 1.8242 1.546141h20c1.108 0 2-.892 2-2v-20c0-.81658-.48717-1.5129-1.1855-1.8242z"/><rect width="23" height="23" x=".5" y="-23.5" fill="none" stroke="url(#b)" stroke-linecap="round" stroke-linejoin="round" rx=".3" ry=".3" transform="rotate(90)" style="paint-order:fill markers stroke"/></svg>