<svg xmlns="http://www.w3.org/2000/svg" width="26" height="26" version="1.1"><defs><linearGradient id="a" x1="1.51" x2="24.381" y1="12" y2="12" gradientTransform="matrix(.95652182 0 0 .95652182 .56518861 -23.521742)" gradientUnits="userSpaceOnUse"><stop offset="0" stop-opacity=".005"/><stop offset=".544" stop-opacity="0"/><stop offset="1" stop-opacity=".471"/></linearGradient><linearGradient id="b" x1="1" x2="25" y1="13" y2="13" gradientTransform="translate(1.502544e-8,-26.00003)" gradientUnits="userSpaceOnUse"><stop offset="0" stop-color="#0c0c0c" stop-opacity="0"/><stop offset=".572" stop-opacity="0"/><stop offset="1" stop-opacity=".591"/></linearGradient></defs><rect width="22" height="22" x="2" y="-24" fill="url(#a)" color="#000" transform="rotate(90)"/><path d="m25 2.7089844v21.2910156c0 .545351-.454649 1-1 1h-22c-.043374 0-.073191.0036-.1152344-.002.2892095.571048.7949947 1.002 1.6152344 1.002h20c1.108 0 2-.892 2-2v-20c0-.4998619-.19821-.9420109-.5-1.2910156z"/><rect width="23" height="23" x="1.5" y="-24.5" fill="none" stroke="url(#b)" stroke-linecap="round" stroke-linejoin="round" stroke-width="1" transform="rotate(90)" style="paint-order:fill markers stroke"/><rect width="22" height="22" x="2" y="-24" fill-opacity=".202" color="#000" transform="rotate(90)"/></svg>