<svg xmlns="http://www.w3.org/2000/svg" width="42" height="26" version="1.1"><defs><linearGradient id="d" x1="1" x2="25" y1="-26" y2="-26" gradientTransform="matrix(1 0 0 .79591837 .80952381 16.332338)" gradientUnits="userSpaceOnUse"><stop offset="0" stop-color="#393939"/><stop offset=".301" stop-color="#393939"/><stop offset="1" stop-color="#141414"/></linearGradient><linearGradient id="c" x1="2" x2="24" y1="12" y2="12" gradientTransform="matrix(.95652175 0 0 1.6521739 .56518906 -39.173913)" gradientUnits="userSpaceOnUse"><stop offset="0" stop-opacity=".005"/><stop offset=".5" stop-opacity="0"/><stop offset="1" stop-opacity=".475"/></linearGradient></defs><path fill="#020201" d="m40.31446 2.17593c.11592.25262.18555.52951.18555.82422v20c0 1.0994-.9006 1.965576-2 1.965572l-35.50001-.00012c-.6598637-2e-6-1.135675-.352003-1.325-.511743.2090942.790888.7641575 1.546138 1.8242 1.546141l36.00079 1e-4c1.108 3e-6 2-.892 2-2v-20c0-.81658-.48717-1.5129-1.1855-1.8242z"/><rect width="23" height="39" x="1.5" y="-40.5" fill="none" stroke="url(#d)" stroke-linecap="round" stroke-linejoin="round" rx=".3" ry=".239" transform="rotate(90)" style="paint-order:fill markers stroke"/><rect width="22" height="38" x="2" y="-40" fill-opacity=".09" stroke-width="1" color="#000" transform="rotate(90)"/><rect width="22" height="38" x="2" y="-40" fill="url(#c)" stroke-width="1" color="#000" transform="rotate(90)"/></svg>