<svg xmlns="http://www.w3.org/2000/svg" width="25" height="25" version="1.1"><defs><linearGradient id="a" x1="2" x2="22" y1="2" y2="22" gradientTransform="matrix(1.0476191 0 0 1.0476191 -.07142862 -.07143054)" gradientUnits="userSpaceOnUse"><stop offset="0"/><stop offset=".5"/><stop offset=".5" stop-color="#333" stop-opacity=".975"/><stop offset="1" stop-color="#333"/></linearGradient><linearGradient id="b" x1="0" x2="24" y1="-12" y2="-12" gradientTransform="matrix(1.047619 0 0 1 -.07142861 0)" gradientUnits="userSpaceOnUse"><stop offset="0" stop-color="#888"/><stop offset="1" stop-color="#666"/></linearGradient></defs><rect width="24" height="24" x=".5" y=".5" fill="none" stroke="#111" stroke-linecap="square" style="paint-order:fill markers stroke"/><path fill="#020201" d="m23.31367 1.17583c.11592.25262.18555.52951.18555.82422v20c0 1.0994-.9006 1.965573-2 1.965572l-19.49922-2e-5c-.6598637-1e-6-1.135675-.352003-1.325-.511743.2090942.790888.7641575 1.546141 1.8242 1.546141h20c1.108 0 2-.892 2-2v-20c0-.81658-.48717-1.5129-1.1855-1.8242z"/><rect width="22" height="22" x="1.5" y="1.5" fill="none" stroke="url(#a)" stroke-linecap="square" stroke-width="1" style="paint-order:fill markers stroke"/><rect width="23" height="23" x=".5" y="-23.5" fill="none" stroke="url(#b)" stroke-linecap="round" stroke-linejoin="round" rx=".3" ry=".3" transform="rotate(90)" style="paint-order:fill markers stroke"/></svg>