<svg xmlns="http://www.w3.org/2000/svg" id="svg2" width="20" height="20" version="1.1"><path id="path4176-3" fill="none" stroke="#000" stroke-linecap="round" stroke-linejoin="round" d="m18.109 5.9258c-1.495-2.9448-4.7209-4.9252-8.0234-4.9258-2.3562-1.3e-7 -4.6979 0.96996-6.364 2.636-1.6661 1.6661-2.636 4.0078-2.636 6.364 0 2.3562 0.96996 4.6979 2.636 6.364 1.6661 1.6661 4.0078 2.636 6.364 2.636 3.2982-0.0045 6.5179-1.9833 8.0117-4.9238"/><path id="path4176" fill="#797979" d="m10.086 1a9 9 0 0 0-9 9 9 9 0 0 0 9 9 9 9 0 0 0 8.0117-4.9238c-0.11833 0.0108-0.23294 0.03711-0.35352 0.03711h-7.6602c-2.2278 0-4.1133-1.8855-4.1133-4.1133 0-2.2278 1.8855-4.1133 4.1133-4.1133h7.6602c0.1246 0 0.24304 0.027536 0.36523 0.039062a9 9 0 0 0-8.0234-4.9258z"/><rect id="rect4168" width="2.34" height="10" x="8.83" y="-18.915" fill="#60a71f" fill-opacity=".776" ry="1.17" transform="rotate(90)"/></svg>