<svg xmlns="http://www.w3.org/2000/svg" id="svg3123" width="644.88" height="644.88" version="1.1"><title id="title3995">Mixxx 1.12+ default cover image</title><metadata id="metadata3128"/><g id="layer1" fill-rule="evenodd" transform="translate(0,-407.48031)"><path id="sleeve" fill="#a9a9a9" d="M0,0v644.88h644.88v-644.88h-644.88zm322.97,171.84h0.03c83.17,0.3,150.33,67.99,150.03,151.16s-67.96,150.33-151.12,150.03c-83.17-0.3-150.37-67.96-150.07-151.12,0.3-83.17,67.96-150.37,151.13-150.07z" opacity=".5" transform="translate(0,407.48031)" style="enable-background:accumulate;color:#000"/><path id="label-cutout" fill="#878787" d="M322.97,171.84c-83.17-0.3-150.83,66.9-151.13,150.07-0.3,83.16,66.9,150.82,150.07,151.12,83.16,0.3,150.82-66.86,151.12-150.03s-66.86-150.86-150.03-151.16h-0.03zm-0.47,136.44c7.83,0.03,14.15,6.39,14.12,14.22-0.02,7.83-6.39,14.15-14.21,14.12-7.83-0.02-14.16-6.39-14.13-14.21,0.03-7.83,6.39-14.16,14.22-14.13z" opacity=".5" transform="translate(0,407.48031)" style="enable-background:accumulate;color:#000"/></g></svg>