<svg xmlns="http://www.w3.org/2000/svg" xmlns:svg="http://www.w3.org/2000/svg" id="svg3084" width="340" height="136" version="1.1" viewBox="0 0 340 136"><defs id="defs3078"><linearGradient id="SVGID_23_" x1="20.25" x2="20.25" y1="211.925" y2="177.135" gradientTransform="translate(-239.34993,-21.735396)" gradientUnits="userSpaceOnUse"><stop id="stop441" offset="0" style="stop-color:#fff"/><stop id="stop443" offset="1" style="stop-color:#000"/></linearGradient><linearGradient id="SVGID_22_" x1="20.31" x2="20.31" y1="211.636" y2="177.241" gradientTransform="translate(-239.34993,-21.735396)" gradientUnits="userSpaceOnUse"><stop id="stop434" offset="0" style="stop-color:#fff"/><stop id="stop436" offset="1" style="stop-color:#000"/></linearGradient><linearGradient id="SVGID_21_" x1="8.663" x2="8.663" y1="211.636" y2="177.528" gradientTransform="translate(-239.34993,-21.735396)" gradientUnits="userSpaceOnUse"><stop id="stop427" offset="0" style="stop-color:#fff"/><stop id="stop429" offset="1" style="stop-color:#000"/></linearGradient><linearGradient id="SVGID_20_" x1="31.853" x2="31.853" y1="211.636" y2="176.641" gradientTransform="translate(-239.34993,-21.735396)" gradientUnits="userSpaceOnUse"><stop id="stop420" offset="0" style="stop-color:#fff"/><stop id="stop422" offset="1" style="stop-color:#000"/></linearGradient><linearGradient id="SVGID_18_" x1="126.626" x2="126.626" y1="211.624" y2="175.927" gradientTransform="translate(-239.34993,-21.735396)" gradientUnits="userSpaceOnUse"><stop id="stop404" offset="0" style="stop-color:#fff"/><stop id="stop406" offset="1" style="stop-color:#000"/></linearGradient><linearGradient id="SVGID_19_" x1="116.18" x2="116.18" y1="211.975" y2="177.22" gradientTransform="translate(-239.34993,-21.735396)" gradientUnits="userSpaceOnUse"><stop id="stop411" offset="0" style="stop-color:#fff"/><stop id="stop413" offset="1" style="stop-color:#000"/></linearGradient><linearGradient id="SVGID_16_" x1="102.966" x2="102.966" y1="211.624" y2="175.927" gradientTransform="translate(-239.34993,-21.735396)" gradientUnits="userSpaceOnUse"><stop id="stop388" offset="0" style="stop-color:#fff"/><stop id="stop390" offset="1" style="stop-color:#000"/></linearGradient><linearGradient id="SVGID_17_" x1="92.521" x2="92.521" y1="211.975" y2="177.22" gradientTransform="translate(-239.34993,-21.735396)" gradientUnits="userSpaceOnUse"><stop id="stop395" offset="0" style="stop-color:#fff"/><stop id="stop397" offset="1" style="stop-color:#000"/></linearGradient><linearGradient id="SVGID_14_" x1="79.318" x2="79.318" y1="211.636" y2="175.938" gradientTransform="translate(-239.34993,-21.735396)" gradientUnits="userSpaceOnUse"><stop id="stop372" offset="0" style="stop-color:#fff"/><stop id="stop374" offset="1" style="stop-color:#000"/></linearGradient><linearGradient id="SVGID_15_" x1="68.873" x2="68.873" y1="211.986" y2="177.232" gradientTransform="translate(-239.34993,-21.735396)" gradientUnits="userSpaceOnUse"><stop id="stop379" offset="0" style="stop-color:#fff"/><stop id="stop381" offset="1" style="stop-color:#000"/></linearGradient><linearGradient id="SVGID_13_" x1=".151" x2=".151" y1="211.457" y2="177.644" gradientTransform="translate(-239.34993,-21.735396)" gradientUnits="userSpaceOnUse"><stop id="stop365" offset="0" style="stop-color:#fff"/><stop id="stop367" offset="1" style="stop-color:#000"/></linearGradient><linearGradient id="SVGID_12_" x1="44.689" x2="44.689" y1="211.457" y2="177.644" gradientTransform="translate(-239.34993,-21.735396)" gradientUnits="userSpaceOnUse"><stop id="stop358" offset="0" style="stop-color:#fff"/><stop id="stop360" offset="1" style="stop-color:#000"/></linearGradient><linearGradient id="SVGID_11_" x1="40.463" x2="40.463" y1="212.223" y2="176.29" gradientTransform="translate(-239.34993,-21.735396)" gradientUnits="userSpaceOnUse"><stop id="stop351" offset="0" style="stop-color:#fff"/><stop id="stop353" offset="1" style="stop-color:#000"/></linearGradient><linearGradient id="SVGID_10_" x1="53.368" x2="53.368" y1="212.223" y2="176.29" gradientTransform="translate(-239.34993,-21.735396)" gradientUnits="userSpaceOnUse"><stop id="stop344" offset="0" style="stop-color:#fff"/><stop id="stop346" offset="1" style="stop-color:#000"/></linearGradient><linearGradient id="SVGID_9_" x1="65.429" x2="65.429" y1="172.518" y2="191.133" gradientTransform="matrix(0.26458333,0,0,0.26458333,1.6526213e-7,260.2229)" gradientUnits="userSpaceOnUse"><stop id="stop333" offset="0" style="stop-color:#828486"/><stop id="stop335" offset=".379" style="stop-color:#5a5b5d"/><stop id="stop337" offset="1" style="stop-color:#d1d3d4"/></linearGradient><linearGradient id="SVGID_4_" x1="74.096" x2="74.096" y1="177.286" y2="213.476" gradientTransform="translate(-239.34993,-21.735396)" gradientUnits="userSpaceOnUse"><stop id="stop286" offset=".478" style="stop-color:#1f1f20"/><stop id="stop288" offset=".863" style="stop-color:#58595b"/><stop id="stop290" offset="1" style="stop-color:#a5a8aa"/></linearGradient><linearGradient id="SVGID_5_" x1="97.754" x2="97.754" y1="177.286" y2="213.476" gradientTransform="translate(-239.34993,-21.735396)" gradientUnits="userSpaceOnUse"><stop id="stop295" offset=".478" style="stop-color:#1f1f20"/><stop id="stop297" offset=".863" style="stop-color:#58595b"/><stop id="stop299" offset="1" style="stop-color:#a5a8aa"/></linearGradient><linearGradient id="SVGID_6_" x1="121.411" x2="121.411" y1="177.286" y2="213.476" gradientTransform="translate(-239.34993,-21.735396)" gradientUnits="userSpaceOnUse"><stop id="stop304" offset=".478" style="stop-color:#1f1f20"/><stop id="stop306" offset=".863" style="stop-color:#58595b"/><stop id="stop308" offset="1" style="stop-color:#a5a8aa"/></linearGradient><linearGradient id="SVGID_7_" x1="49.035" x2="49.035" y1="177.286" y2="213.476" gradientTransform="translate(-239.34993,-21.735396)" gradientUnits="userSpaceOnUse"><stop id="stop313" offset=".478" style="stop-color:#1f1f20"/><stop id="stop315" offset=".863" style="stop-color:#58595b"/><stop id="stop317" offset="1" style="stop-color:#a5a8aa"/></linearGradient><linearGradient id="SVGID_8_" x1="20.309" x2="20.309" y1="177.286" y2="213.476" gradientTransform="translate(-239.34993,-21.735396)" gradientUnits="userSpaceOnUse"><stop id="stop322" offset=".478" style="stop-color:#1f1f20"/><stop id="stop324" offset=".863" style="stop-color:#58595b"/><stop id="stop326" offset="1" style="stop-color:#a5a8aa"/></linearGradient><linearGradient id="SVGID_3_" x1="109.707" x2="85.934" y1="177.134" y2="211.5" gradientTransform="translate(-239.34993,-21.735396)" gradientUnits="userSpaceOnUse"><stop id="stop267" offset="0" style="stop-color:#130e1e"/><stop id="stop269" offset=".023" style="stop-color:#1c1426"/><stop id="stop271" offset=".145" style="stop-color:#442349"/><stop id="stop273" offset=".255" style="stop-color:#652966"/><stop id="stop275" offset=".351" style="stop-color:#7c287a"/><stop id="stop277" offset=".429" style="stop-color:#8b2688"/><stop id="stop279" offset=".478" style="stop-color:#91278f"/><stop id="stop281" offset="1" style="stop-color:#ed1c24"/></linearGradient><linearGradient id="SVGID_2_" x1="86.048" x2="62.274" y1="177.132" y2="211.5" gradientTransform="translate(-239.34993,-21.735396)" gradientUnits="userSpaceOnUse"><stop id="stop242" offset="0" style="stop-color:#381f1f"/><stop id="stop244" offset=".002" style="stop-color:#3a1f20"/><stop id="stop246" offset=".038" style="stop-color:#5b2926"/><stop id="stop248" offset=".076" style="stop-color:#7c2f28"/><stop id="stop250" offset=".117" style="stop-color:#9b3029"/><stop id="stop252" offset=".163" style="stop-color:#b62e28"/><stop id="stop254" offset=".213" style="stop-color:#cc2927"/><stop id="stop256" offset=".271" style="stop-color:#dc2325"/><stop id="stop258" offset=".344" style="stop-color:#e81f25"/><stop id="stop260" offset=".478" style="stop-color:#ed1c24"/><stop id="stop262" offset="1" style="stop-color:#f7931e"/></linearGradient><linearGradient id="SVGID_1_" x1="133.363" x2="109.59" y1="177.134" y2="211.5" gradientTransform="translate(-239.34993,-21.735396)" gradientUnits="userSpaceOnUse"><stop id="stop235" offset=".478" style="stop-color:#39b54a"/><stop id="stop237" offset="1" style="stop-color:#1b75bc"/></linearGradient><linearGradient id="SVGID_23_-3" x1="20.25" x2="20.25" y1="211.925" y2="177.135" gradientUnits="userSpaceOnUse"><stop id="stop441-6" offset="0" style="stop-color:#fff"/><stop id="stop443-7" offset="1" style="stop-color:#000"/></linearGradient><linearGradient id="SVGID_22_-5" x1="20.31" x2="20.31" y1="211.636" y2="177.241" gradientUnits="userSpaceOnUse"><stop id="stop434-3" offset="0" style="stop-color:#fff"/><stop id="stop436-5" offset="1" style="stop-color:#000"/></linearGradient><linearGradient id="SVGID_21_-6" x1="8.663" x2="8.663" y1="211.636" y2="177.528" gradientUnits="userSpaceOnUse"><stop id="stop427-2" offset="0" style="stop-color:#fff"/><stop id="stop429-9" offset="1" style="stop-color:#000"/></linearGradient><linearGradient id="SVGID_20_-1" x1="31.853" x2="31.853" y1="211.636" y2="176.641" gradientUnits="userSpaceOnUse"><stop id="stop420-2" offset="0" style="stop-color:#fff"/><stop id="stop422-7" offset="1" style="stop-color:#000"/></linearGradient><linearGradient id="SVGID_18_-0" x1="126.626" x2="126.626" y1="211.624" y2="175.927" gradientUnits="userSpaceOnUse"><stop id="stop404-9" offset="0" style="stop-color:#fff"/><stop id="stop406-3" offset="1" style="stop-color:#000"/></linearGradient><linearGradient id="SVGID_19_-6" x1="116.18" x2="116.18" y1="211.975" y2="177.22" gradientUnits="userSpaceOnUse"><stop id="stop411-0" offset="0" style="stop-color:#fff"/><stop id="stop413-6" offset="1" style="stop-color:#000"/></linearGradient><linearGradient id="SVGID_16_-2" x1="102.966" x2="102.966" y1="211.624" y2="175.927" gradientUnits="userSpaceOnUse"><stop id="stop388-6" offset="0" style="stop-color:#fff"/><stop id="stop390-1" offset="1" style="stop-color:#000"/></linearGradient><linearGradient id="SVGID_17_-8" x1="92.521" x2="92.521" y1="211.975" y2="177.22" gradientUnits="userSpaceOnUse"><stop id="stop395-7" offset="0" style="stop-color:#fff"/><stop id="stop397-9" offset="1" style="stop-color:#000"/></linearGradient><linearGradient id="SVGID_14_-2" x1="79.318" x2="79.318" y1="211.636" y2="175.938" gradientUnits="userSpaceOnUse"><stop id="stop372-0" offset="0" style="stop-color:#fff"/><stop id="stop374-2" offset="1" style="stop-color:#000"/></linearGradient><linearGradient id="SVGID_15_-3" x1="68.873" x2="68.873" y1="211.986" y2="177.232" gradientUnits="userSpaceOnUse"><stop id="stop379-7" offset="0" style="stop-color:#fff"/><stop id="stop381-5" offset="1" style="stop-color:#000"/></linearGradient><linearGradient id="SVGID_13_-9" x1=".151" x2=".151" y1="211.457" y2="177.644" gradientUnits="userSpaceOnUse"><stop id="stop365-2" offset="0" style="stop-color:#fff"/><stop id="stop367-2" offset="1" style="stop-color:#000"/></linearGradient><linearGradient id="SVGID_12_-8" x1="44.689" x2="44.689" y1="211.457" y2="177.644" gradientUnits="userSpaceOnUse"><stop id="stop358-9" offset="0" style="stop-color:#fff"/><stop id="stop360-7" offset="1" style="stop-color:#000"/></linearGradient><linearGradient id="SVGID_11_-3" x1="40.463" x2="40.463" y1="212.223" y2="176.29" gradientUnits="userSpaceOnUse"><stop id="stop351-6" offset="0" style="stop-color:#fff"/><stop id="stop353-1" offset="1" style="stop-color:#000"/></linearGradient><linearGradient id="SVGID_10_-2" x1="53.368" x2="53.368" y1="212.223" y2="176.29" gradientUnits="userSpaceOnUse"><stop id="stop344-9" offset="0" style="stop-color:#fff"/><stop id="stop346-3" offset="1" style="stop-color:#000"/></linearGradient><linearGradient id="SVGID_9_-1" x1="65.429" x2="65.429" y1="172.518" y2="191.133" gradientTransform="matrix(2.0694438,0,0,2.0694438,14,-338.13777)" gradientUnits="userSpaceOnUse"><stop id="stop333-9" offset="0" style="stop-color:#828486"/><stop id="stop335-4" offset=".379" style="stop-color:#5a5b5d"/><stop id="stop337-7" offset="1" style="stop-color:#d1d3d4"/></linearGradient><linearGradient id="SVGID_4_-8" x1="74.096" x2="74.096" y1="177.286" y2="213.476" gradientUnits="userSpaceOnUse"><stop id="stop286-4" offset=".478" style="stop-color:#1f1f20"/><stop id="stop288-5" offset=".863" style="stop-color:#58595b"/><stop id="stop290-0" offset="1" style="stop-color:#a5a8aa"/></linearGradient><linearGradient id="SVGID_5_-3" x1="97.754" x2="97.754" y1="177.286" y2="213.476" gradientUnits="userSpaceOnUse"><stop id="stop295-6" offset=".478" style="stop-color:#1f1f20"/><stop id="stop297-1" offset=".863" style="stop-color:#58595b"/><stop id="stop299-0" offset="1" style="stop-color:#a5a8aa"/></linearGradient><linearGradient id="SVGID_6_-6" x1="121.411" x2="121.411" y1="177.286" y2="213.476" gradientUnits="userSpaceOnUse"><stop id="stop304-3" offset=".478" style="stop-color:#1f1f20"/><stop id="stop306-2" offset=".863" style="stop-color:#58595b"/><stop id="stop308-0" offset="1" style="stop-color:#a5a8aa"/></linearGradient><linearGradient id="SVGID_7_-6" x1="49.035" x2="49.035" y1="177.286" y2="213.476" gradientUnits="userSpaceOnUse"><stop id="stop313-1" offset=".478" style="stop-color:#1f1f20"/><stop id="stop315-5" offset=".863" style="stop-color:#58595b"/><stop id="stop317-5" offset="1" style="stop-color:#a5a8aa"/></linearGradient><linearGradient id="SVGID_8_-4" x1="20.309" x2="20.309" y1="177.286" y2="213.476" gradientUnits="userSpaceOnUse"><stop id="stop322-7" offset=".478" style="stop-color:#1f1f20"/><stop id="stop324-6" offset=".863" style="stop-color:#58595b"/><stop id="stop326-5" offset="1" style="stop-color:#a5a8aa"/></linearGradient><linearGradient id="SVGID_3_-6" x1="109.707" x2="85.934" y1="177.134" y2="211.5" gradientUnits="userSpaceOnUse"><stop id="stop267-9" offset="0" style="stop-color:#130e1e"/><stop id="stop269-3" offset=".023" style="stop-color:#1c1426"/><stop id="stop271-7" offset=".145" style="stop-color:#442349"/><stop id="stop273-4" offset=".255" style="stop-color:#652966"/><stop id="stop275-5" offset=".351" style="stop-color:#7c287a"/><stop id="stop277-2" offset=".429" style="stop-color:#8b2688"/><stop id="stop279-5" offset=".478" style="stop-color:#91278f"/><stop id="stop281-4" offset="1" style="stop-color:#ed1c24"/></linearGradient><linearGradient id="SVGID_2_-7" x1="86.048" x2="62.274" y1="177.132" y2="211.5" gradientUnits="userSpaceOnUse"><stop id="stop242-4" offset="0" style="stop-color:#381f1f"/><stop id="stop244-4" offset=".002" style="stop-color:#3a1f20"/><stop id="stop246-3" offset=".038" style="stop-color:#5b2926"/><stop id="stop248-0" offset=".076" style="stop-color:#7c2f28"/><stop id="stop250-7" offset=".117" style="stop-color:#9b3029"/><stop id="stop252-8" offset=".163" style="stop-color:#b62e28"/><stop id="stop254-6" offset=".213" style="stop-color:#cc2927"/><stop id="stop256-8" offset=".271" style="stop-color:#dc2325"/><stop id="stop258-8" offset=".344" style="stop-color:#e81f25"/><stop id="stop260-4" offset=".478" style="stop-color:#ed1c24"/><stop id="stop262-3" offset="1" style="stop-color:#f7931e"/></linearGradient><linearGradient id="SVGID_1_-1" x1="133.363" x2="109.59" y1="177.134" y2="211.5" gradientUnits="userSpaceOnUse"><stop id="stop235-4" offset=".478" style="stop-color:#39b54a"/><stop id="stop237-9" offset="1" style="stop-color:#1b75bc"/></linearGradient><linearGradient id="SVGID_1_-1-2" x1="133.363" x2="109.59" y1="177.134" y2="211.5" gradientUnits="userSpaceOnUse"><stop id="stop235-4-0" offset=".478" style="stop-color:#39b54a"/><stop id="stop237-9-6" offset="1" style="stop-color:#1b75bc"/></linearGradient><linearGradient id="SVGID_2_-7-8" x1="86.048" x2="62.274" y1="177.132" y2="211.5" gradientUnits="userSpaceOnUse"><stop id="stop242-4-9" offset="0" style="stop-color:#381f1f"/><stop id="stop244-4-2" offset=".002" style="stop-color:#3a1f20"/><stop id="stop246-3-6" offset=".038" style="stop-color:#5b2926"/><stop id="stop248-0-6" offset=".076" style="stop-color:#7c2f28"/><stop id="stop250-7-4" offset=".117" style="stop-color:#9b3029"/><stop id="stop252-8-9" offset=".163" style="stop-color:#b62e28"/><stop id="stop254-6-5" offset=".213" style="stop-color:#cc2927"/><stop id="stop256-8-0" offset=".271" style="stop-color:#dc2325"/><stop id="stop258-8-4" offset=".344" style="stop-color:#e81f25"/><stop id="stop260-4-8" offset=".478" style="stop-color:#ed1c24"/><stop id="stop262-3-7" offset="1" style="stop-color:#f7931e"/></linearGradient><linearGradient id="SVGID_3_-6-1" x1="109.707" x2="85.934" y1="177.134" y2="211.5" gradientUnits="userSpaceOnUse"><stop id="stop267-9-7" offset="0" style="stop-color:#130e1e"/><stop id="stop269-3-2" offset=".023" style="stop-color:#1c1426"/><stop id="stop271-7-7" offset=".145" style="stop-color:#442349"/><stop id="stop273-4-2" offset=".255" style="stop-color:#652966"/><stop id="stop275-5-2" offset=".351" style="stop-color:#7c287a"/><stop id="stop277-2-6" offset=".429" style="stop-color:#8b2688"/><stop id="stop279-5-1" offset=".478" style="stop-color:#91278f"/><stop id="stop281-4-0" offset="1" style="stop-color:#ed1c24"/></linearGradient><linearGradient id="SVGID_4_-8-6" x1="74.096" x2="74.096" y1="177.286" y2="208.503" gradientUnits="userSpaceOnUse"><stop id="stop286-4-1" offset=".478" style="stop-color:#1f1f20"/><stop id="stop288-5-5" offset="1" style="stop-color:#58595b"/></linearGradient><linearGradient id="SVGID_5_-3-4" x1="97.754" x2="97.754" y1="177.286" y2="208.503" gradientUnits="userSpaceOnUse"><stop id="stop295-6-9" offset=".478" style="stop-color:#1f1f20"/><stop id="stop297-1-0" offset="1" style="stop-color:#58595b"/></linearGradient><linearGradient id="SVGID_6_-6-1" x1="121.411" x2="121.411" y1="177.286" y2="208.503" gradientUnits="userSpaceOnUse"><stop id="stop304-3-7" offset=".478" style="stop-color:#1f1f20"/><stop id="stop306-2-7" offset="1" style="stop-color:#58595b"/></linearGradient><linearGradient id="SVGID_7_-6-1" x1="49.035" x2="49.035" y1="177.286" y2="208.503" gradientUnits="userSpaceOnUse"><stop id="stop313-1-5" offset=".478" style="stop-color:#1f1f20"/><stop id="stop315-5-9" offset="1" style="stop-color:#58595b"/></linearGradient><linearGradient id="SVGID_8_-4-7" x1="20.309" x2="20.309" y1="177.286" y2="213.476" gradientUnits="userSpaceOnUse"><stop id="stop322-7-6" offset=".478" style="stop-color:#1f1f20"/><stop id="stop324-6-7" offset=".863" style="stop-color:#58595b"/><stop id="stop326-5-3" offset="1" style="stop-color:#a5a8aa"/></linearGradient><linearGradient id="SVGID_10_-2-3" x1="53.368" x2="53.368" y1="212.223" y2="176.29" gradientUnits="userSpaceOnUse"><stop id="stop344-9-9" offset="0" style="stop-color:#fff"/><stop id="stop346-3-4" offset="1" style="stop-color:#000"/></linearGradient><linearGradient id="SVGID_11_-3-8" x1="40.463" x2="40.463" y1="212.223" y2="176.29" gradientUnits="userSpaceOnUse"><stop id="stop351-6-1" offset="0" style="stop-color:#fff"/><stop id="stop353-1-2" offset="1" style="stop-color:#000"/></linearGradient><linearGradient id="SVGID_12_-8-9" x1="44.689" x2="44.689" y1="211.457" y2="177.644" gradientUnits="userSpaceOnUse"><stop id="stop358-9-3" offset="0" style="stop-color:#fff"/><stop id="stop360-7-9" offset="1" style="stop-color:#000"/></linearGradient><linearGradient id="SVGID_13_-9-0" x1=".151" x2=".151" y1="211.457" y2="177.644" gradientUnits="userSpaceOnUse"><stop id="stop365-2-8" offset="0" style="stop-color:#fff"/><stop id="stop367-2-8" offset="1" style="stop-color:#000"/></linearGradient><linearGradient id="SVGID_14_-2-5" x1="79.318" x2="79.318" y1="211.636" y2="175.938" gradientUnits="userSpaceOnUse"><stop id="stop372-0-0" offset="0" style="stop-color:#fff"/><stop id="stop374-2-9" offset="1" style="stop-color:#000"/></linearGradient><linearGradient id="SVGID_15_-3-6" x1="68.873" x2="68.873" y1="211.986" y2="177.232" gradientUnits="userSpaceOnUse"><stop id="stop379-7-3" offset="0" style="stop-color:#fff"/><stop id="stop381-5-8" offset="1" style="stop-color:#000"/></linearGradient><linearGradient id="SVGID_16_-2-5" x1="102.966" x2="102.966" y1="211.624" y2="175.927" gradientUnits="userSpaceOnUse"><stop id="stop388-6-6" offset="0" style="stop-color:#fff"/><stop id="stop390-1-1" offset="1" style="stop-color:#000"/></linearGradient><linearGradient id="SVGID_17_-8-1" x1="92.521" x2="92.521" y1="211.975" y2="177.22" gradientUnits="userSpaceOnUse"><stop id="stop395-7-5" offset="0" style="stop-color:#fff"/><stop id="stop397-9-9" offset="1" style="stop-color:#000"/></linearGradient><linearGradient id="SVGID_18_-0-8" x1="126.626" x2="126.626" y1="211.624" y2="175.927" gradientUnits="userSpaceOnUse"><stop id="stop404-9-4" offset="0" style="stop-color:#fff"/><stop id="stop406-3-8" offset="1" style="stop-color:#000"/></linearGradient><linearGradient id="SVGID_19_-6-1" x1="116.18" x2="116.18" y1="211.975" y2="177.22" gradientUnits="userSpaceOnUse"><stop id="stop411-0-0" offset="0" style="stop-color:#fff"/><stop id="stop413-6-3" offset="1" style="stop-color:#000"/></linearGradient><linearGradient id="SVGID_20_-1-0" x1="31.853" x2="31.853" y1="211.636" y2="176.641" gradientUnits="userSpaceOnUse"><stop id="stop420-2-4" offset="0" style="stop-color:#fff"/><stop id="stop422-7-4" offset="1" style="stop-color:#000"/></linearGradient><linearGradient id="SVGID_21_-6-4" x1="8.663" x2="8.663" y1="211.636" y2="177.528" gradientUnits="userSpaceOnUse"><stop id="stop427-2-4" offset="0" style="stop-color:#fff"/><stop id="stop429-9-7" offset="1" style="stop-color:#000"/></linearGradient><linearGradient id="SVGID_22_-5-6" x1="20.31" x2="20.31" y1="211.636" y2="177.241" gradientTransform="matrix(2.0694437,0,0,2.0694438,14,-338.13781)" gradientUnits="userSpaceOnUse"><stop id="stop434-3-3" offset="0" style="stop-color:#fff"/><stop id="stop436-5-1" offset="1" style="stop-color:#000"/></linearGradient><linearGradient id="SVGID_23_-3-7" x1="20.25" x2="20.25" y1="211.925" y2="177.135" gradientUnits="userSpaceOnUse"><stop id="stop441-6-5" offset="0" style="stop-color:#fff"/><stop id="stop443-7-9" offset="1" style="stop-color:#000"/></linearGradient><linearGradient id="SVGID_10_-2-35" x1="53.368" x2="53.368" y1="212.223" y2="176.29" gradientUnits="userSpaceOnUse"><stop id="stop344-9-6" offset="0" style="stop-color:#fff"/><stop id="stop346-3-2" offset="1" style="stop-color:#000"/></linearGradient><linearGradient id="SVGID_8_-4-7-8" x1="20.309" x2="20.309" y1="177.286" y2="213.476" gradientUnits="userSpaceOnUse"><stop id="stop322-7-6-4" offset=".478" style="stop-color:#1f1f20"/><stop id="stop324-6-7-5" offset=".863" style="stop-color:#58595b"/><stop id="stop326-5-3-0" offset="1" style="stop-color:#a5a8aa"/></linearGradient><linearGradient id="SVGID_7_-6-1-3" x1="49.035" x2="49.035" y1="177.286" y2="213.476" gradientTransform="matrix(2.3114205,0,0,2.3114206,14,-381.17978)" gradientUnits="userSpaceOnUse"><stop id="stop313-1-5-6" offset=".478" style="stop-color:#1f1f20"/><stop id="stop315-5-9-1" offset=".863" style="stop-color:#58595b"/><stop id="stop317-5-7" offset="1" style="stop-color:#a5a8aa"/></linearGradient><linearGradient id="SVGID_4_-8-6-0" x1="74.096" x2="74.096" y1="177.286" y2="213.476" gradientUnits="userSpaceOnUse"><stop id="stop286-4-1-6" offset=".478" style="stop-color:#1f1f20"/><stop id="stop288-5-5-3" offset=".863" style="stop-color:#58595b"/><stop id="stop290-0-9" offset="1" style="stop-color:#a5a8aa"/></linearGradient><linearGradient id="SVGID_6_-6-1-2" x1="121.411" x2="121.411" y1="177.286" y2="213.476" gradientUnits="userSpaceOnUse"><stop id="stop304-3-7-0" offset=".478" style="stop-color:#1f1f20"/><stop id="stop306-2-7-6" offset=".863" style="stop-color:#58595b"/><stop id="stop308-0-1" offset="1" style="stop-color:#a5a8aa"/></linearGradient><linearGradient id="SVGID_5_-3-4-1" x1="97.754" x2="97.754" y1="177.286" y2="213.476" gradientUnits="userSpaceOnUse"><stop id="stop295-6-9-5" offset=".478" style="stop-color:#1f1f20"/><stop id="stop297-1-0-5" offset=".863" style="stop-color:#58595b"/><stop id="stop299-0-9" offset="1" style="stop-color:#a5a8aa"/></linearGradient></defs><metadata id="metadata3081"/><polygon style="fill:url(#SVGID_1_-1-2)" id="polygon240" points="114.823 211.636 104.378 211.636 127.999 177.19 138.439 177.19" transform="matrix(2.0694437,0,0,2.0694438,14,-338.13781)"/><polygon style="fill:url(#SVGID_2_-7-8)" id="polygon265" points="67.51 211.636 57.062 211.636 80.68 177.19 91.126 177.19" transform="matrix(2.0694437,0,0,2.0694438,14,-338.13781)"/><polygon style="fill:url(#SVGID_3_-6-1)" id="polygon284" points="91.167 211.636 80.722 211.636 104.342 177.19 114.783 177.19" transform="matrix(2.0694437,0,0,2.0694438,14,-338.13781)"/><g id="g2471" transform="matrix(0.89531253,0,0,0.89531253,1.4656246,3.1372178)"><polygon style="fill:url(#SVGID_4_-8-6-0)" id="polygon293-4" points="57.065 177.19 80.68 211.636 91.126 211.636 67.51 177.19" transform="matrix(2.3114205,0,0,2.3114206,14,-381.17978)"/><polygon style="fill:url(#SVGID_5_-3-4-1)" id="polygon302-7" points="80.722 177.19 104.342 211.636 114.787 211.636 91.167 177.19" transform="matrix(2.3114205,0,0,2.3114206,14,-381.17978)"/><polygon style="fill:url(#SVGID_6_-6-1-2)" id="polygon311-6" points="104.378 177.19 127.999 211.636 138.443 211.636 114.823 177.19" transform="matrix(2.3114205,0,0,2.3114206,14,-381.17978)"/><rect style="fill:url(#SVGID_7_-6-1-3);stroke-width:2.31142044" id="rect320-5" width="20.65" height="79.617" x="117.015" y="28.381"/><polygon style="fill:url(#SVGID_8_-4-7-8)" id="polygon329-6" points="20.307 208.64 31.74 191.289 31.74 211.636 40.618 211.636 40.618 177.19 30.988 177.19 20.307 194.365 9.631 177.19 0 177.19 0 211.636 8.76 211.636 8.76 191.464 20.076 208.64" transform="matrix(2.3114205,0,0,2.3114206,14,-381.17978)"/></g><path style="fill:url(#SVGID_9_-1);stroke-width:2.0694437" id="path340" d="m 132.09281,28.546938 22.7287,33.152534 c 7.4769,0.118116 14.83791,0.34726 22.07682,0.674218 L 153.70814,28.546561 Z m 48.95683,0 24.47531,35.685518 c 7.98598,0.689077 15.75468,1.500345 23.27503,2.433664 l -26.135,-38.119182 z m 70.57009,0 h -21.61534 l 29.36126,42.806497 c 9.0352,1.678236 17.54269,3.546965 25.43761,5.577119 z M 106.23097,62.382386 c 6.06968,-0.277657 12.2449,-0.476332 18.48841,-0.608518 V 28.54687 H 106.23097 Z M 56.024195,64.089656 33.930811,28.546938 H 14 v 45.120093 c 5.792374,-1.249972 11.84343,-2.402612 18.128327,-3.474555 V 58.084135 l 7.1996,10.930812 c 11.297089,-1.759069 23.275026,-3.236646 35.811719,-4.39757 l 4.542431,-6.895395 v 6.489761 c 6.007592,-0.51543 12.137286,-0.956088 18.370451,-1.32026 V 28.546938 H 78.123782 Z"/><path style="fill:#fff;stroke-width:2.0694437" id="path342" d="m 205.37388,64.013068 0.15112,0.219799 c 7.98598,0.689077 15.75467,1.50031 23.27504,2.433664 l -0.16557,-0.239997 C 221.1348,65.503621 213.36611,64.69862 205.37392,64.013616 Z M 14,73.667031 c 5.792374,-1.249972 11.84343,-2.402612 18.128327,-3.474555 V 69.256999 C 25.839285,70.271082 19.771678,71.36374 14,72.539145 Z M 284.63771,76.6884 c -7.83491,-2.044636 -16.33619,-3.931956 -25.46865,-5.620634 l 0.19656,0.285532 c 9.03519,1.67827 17.54267,3.546965 25.43761,5.577119 z m -129.99003,-15.24351 0.17378,0.255061 c 7.47689,0.118116 14.83791,0.347295 22.07683,0.674218 l -0.16143,-0.231438 c -7.23063,-0.333121 -14.602,-0.567059 -22.08924,-0.69767 z m -48.41671,0.937496 c 6.06968,-0.277657 12.2449,-0.476332 18.48841,-0.608518 V 61.43835 c -6.24558,0.109557 -12.4146,0.283136 -18.48841,0.531863 z M 39.329991,69.016967 C 50.627087,67.258 62.605027,65.780355 75.141718,64.619396 l 0.407656,-0.622589 c -12.896778,1.103064 -25.197548,2.522679 -36.742971,4.225806 z m 40.354151,-4.803204 c 6.007602,-0.51543 12.137289,-0.956019 18.370454,-1.320261 v -0.461473 c -6.237311,0.335517 -12.369062,0.738343 -18.370454,1.21892 z"/><polygon style="fill:url(#SVGID_10_-2-3)" id="polygon349" points="53.233 177.19 53.502 211.636 53.502 177.19" transform="matrix(2.0694437,0,0,2.0694438,14,-338.13781)"/><polygon style="fill:url(#SVGID_11_-3-8)" id="polygon356" points="40.598 177.19 40.329 177.19 40.598 211.636" transform="matrix(2.0694437,0,0,2.0694438,14.037255,-338.13781)"/><polygon style="fill:url(#SVGID_12_-8-9)" id="polygon363" points="44.568 211.636 44.81 211.636 44.568 177.19" transform="matrix(2.0694437,0,0,2.0694438,14,-338.13781)"/><polygon style="fill:url(#SVGID_13_-9-0)" id="polygon370" points=".272 211.636 .03 177.19 .03 211.636" transform="matrix(2.0694437,0,0,2.0694438,13.937917,-338.13819)"/><g id="g386" transform="matrix(2.0694437,0,0,2.0694438,14,-338.13781)"><linearGradient id="linearGradient4113" x1="79.318" x2="79.318" y1="211.636" y2="175.938" gradientUnits="userSpaceOnUse"><stop id="stop4109" offset="0" style="stop-color:#fff"/><stop id="stop4111" offset="1" style="stop-color:#000"/></linearGradient><polygon style="fill:url(#SVGID_14_-2-5)" id="polygon377" points="90.904 211.636 91.126 211.636 67.51 177.19"/><linearGradient id="linearGradient4120" x1="68.873" x2="68.873" y1="211.986" y2="177.232" gradientUnits="userSpaceOnUse"><stop id="stop4116" offset="0" style="stop-color:#fff"/><stop id="stop4118" offset="1" style="stop-color:#000"/></linearGradient><polygon style="fill:url(#SVGID_15_-3-6)" id="polygon384" points="80.68 211.636 57.383 177.19 57.065 177.19"/></g><g id="g402" transform="matrix(2.0694437,0,0,2.0694438,14,-338.13781)"><linearGradient id="linearGradient4128" x1="102.966" x2="102.966" y1="211.624" y2="175.927" gradientUnits="userSpaceOnUse"><stop id="stop4124" offset="0" style="stop-color:#fff"/><stop id="stop4126" offset="1" style="stop-color:#000"/></linearGradient><polygon style="fill:url(#SVGID_16_-2-5)" id="polygon393" points="114.552 211.624 114.774 211.624 91.158 177.179"/><linearGradient id="linearGradient4135" x1="92.521" x2="92.521" y1="211.975" y2="177.22" gradientUnits="userSpaceOnUse"><stop id="stop4131" offset="0" style="stop-color:#fff"/><stop id="stop4133" offset="1" style="stop-color:#000"/></linearGradient><polygon style="fill:url(#SVGID_17_-8-1)" id="polygon400" points="104.329 211.624 81.031 177.179 80.713 177.179"/></g><g id="g418" transform="matrix(2.0694437,0,0,2.0694438,14,-338.13781)"><linearGradient id="linearGradient4143" x1="126.626" x2="126.626" y1="211.624" y2="175.927" gradientUnits="userSpaceOnUse"><stop id="stop4139" offset="0" style="stop-color:#fff"/><stop id="stop4141" offset="1" style="stop-color:#000"/></linearGradient><polygon style="fill:url(#SVGID_18_-0-8)" id="polygon409" points="138.211 211.624 138.434 211.624 114.817 177.179"/><linearGradient id="linearGradient4150" x1="116.18" x2="116.18" y1="211.975" y2="177.22" gradientUnits="userSpaceOnUse"><stop id="stop4146" offset="0" style="stop-color:#fff"/><stop id="stop4148" offset="1" style="stop-color:#000"/></linearGradient><polygon style="fill:url(#SVGID_19_-6-1)" id="polygon416" points="104.69 177.179 104.373 177.179 127.987 211.624" transform="translate(0.005,0.011)"/></g><polygon style="fill:url(#SVGID_20_-1-0)" id="polygon425" points="31.965 211.636 31.74 191.289 31.74 211.636" transform="matrix(2.0694437,0,0,2.0694438,14,-338.13781)"/><polygon style="fill:url(#SVGID_21_-6-4)" id="polygon432" points="8.566 191.183 8.758 211.636 8.758 191.464" transform="matrix(2.0694437,0,0,2.0694438,14,-338.13781)"/><path style="fill:url(#SVGID_22_-5-6);stroke-width:2.0694437" id="polygon439" d="M 56.024193,64.089636 33.930812,28.546939 H 33.306801 L 56.026263,64.613205 78.127921,28.546939 Z"/><polygon style="fill:url(#SVGID_23_-3-7)" id="polygon446" points="8.76 191.464 20.076 208.64 20.307 208.64 31.74 191.289 20.203 208.517" transform="matrix(2.0694437,0,0,2.0694438,14,-338.13781)"/><polygon style="fill:#040404;fill-opacity:1" id="polygon349-5-9" points="53.502 211.636 53.502 177.19 53.233 177.19" transform="matrix(0,-2.0694437,-0.57886276,0,200.62536,139.26631)"/><polygon style="fill:#040404;fill-opacity:1" id="polygon349-5-9-1" points="53.502 177.19 53.233 177.19 53.502 211.636" transform="matrix(0,-2.0694437,-0.53662613,0,219.80416,139.26631)"/><path style="fill:#040404;fill-opacity:1;stroke-width:1.09449708" id="polygon349-5-9-2" d="m 132.0866,28.546934 0.37901,0.543799 21.24253,-0.543799 z"/><path style="fill:#040404;fill-opacity:1;stroke-width:1.09449708" id="polygon349-5-9-9" d="M 34.267731,29.088956 13.999998,28.546938 h 19.939507 z"/><path style="fill:#040404;fill-opacity:1;stroke-width:1.09449708" id="polygon349-5-9-2-3" d="m 181.04964,28.546938 0.37901,0.543798 21.24253,-0.543798 z"/><path style="fill:#040404;fill-opacity:1;stroke-width:1.09449708" id="polygon349-5-9-2-6" d="m 230.00439,28.546938 0.37901,0.543798 21.24254,-0.543798 z"/></svg>