<svg xmlns="http://www.w3.org/2000/svg" xmlns:svg="http://www.w3.org/2000/svg" xmlns:xlink="http://www.w3.org/1999/xlink" id="svg5792" width="78" height="24" version="1.1"><defs id="defs5794"><linearGradient id="SVGID_50_" x1="74.096" x2="74.096" y1="283.013" y2="240.299" gradientUnits="userSpaceOnUse"><stop id="stop722" offset="0" style="stop-color:#1f1f20;stop-opacity:1"/><stop id="stop724" offset="1" style="stop-color:#a5a8aa;stop-opacity:1"/></linearGradient><linearGradient id="SVGID_51_" x1="97.754" x2="97.754" y1="283.013" y2="240.299" gradientUnits="userSpaceOnUse"><stop id="stop729" offset="0" style="stop-color:#1f1f20;stop-opacity:1"/><stop id="stop731" offset="1" style="stop-color:#a5a8aa;stop-opacity:1"/></linearGradient><linearGradient id="SVGID_52_" x1="121.411" x2="121.411" y1="283.013" y2="240.299" gradientUnits="userSpaceOnUse"><stop id="stop736" offset="0" style="stop-color:#fead00;stop-opacity:1"/><stop id="stop738" offset="1" style="stop-color:#ffd73d;stop-opacity:1"/></linearGradient><linearGradient id="SVGID_53_" x1="49.035" x2="49.035" y1="283.013" y2="240.299" gradientUnits="userSpaceOnUse"><stop id="stop743" offset="0" style="stop-color:#1f1f20;stop-opacity:1"/><stop id="stop745" offset="1" style="stop-color:#a5a8aa;stop-opacity:1"/></linearGradient><linearGradient id="SVGID_54_" x1="20.309" x2="20.309" y1="283.013" y2="240.299" gradientUnits="userSpaceOnUse"><stop id="stop750" offset="0" style="stop-color:#1f1f20;stop-opacity:1"/><stop id="stop752" offset="1" style="stop-color:#a5a8aa;stop-opacity:1"/></linearGradient><linearGradient id="SVGID_49_" x1="109.707" x2="85.934" y1="244.088" y2="278.454" gradientUnits="userSpaceOnUse"><stop id="stop701" offset="0" style="stop-color:#130e1e;stop-opacity:1"/><stop id="stop703" offset=".023" style="stop-color:#1c1426;stop-opacity:1"/><stop id="stop705" offset=".145" style="stop-color:#442349;stop-opacity:1"/><stop id="stop707" offset=".255" style="stop-color:#652966;stop-opacity:1"/><stop id="stop709" offset=".351" style="stop-color:#7c287a;stop-opacity:1"/><stop id="stop711" offset=".429" style="stop-color:#8b2688;stop-opacity:1"/><stop id="stop713" offset=".478" style="stop-color:#91278f;stop-opacity:1"/><stop id="stop715" offset="1" style="stop-color:#ed1c24;stop-opacity:1"/></linearGradient><linearGradient id="SVGID_48_" x1="86.049" x2="62.275" y1="244.088" y2="278.455" gradientUnits="userSpaceOnUse"><stop id="stop676" offset="0" style="stop-color:#381f1f;stop-opacity:1"/><stop id="stop678" offset=".002" style="stop-color:#3a1f20;stop-opacity:1"/><stop id="stop680" offset=".038" style="stop-color:#5b2926;stop-opacity:1"/><stop id="stop682" offset=".076" style="stop-color:#7c2f28;stop-opacity:1"/><stop id="stop684" offset=".117" style="stop-color:#9b3029;stop-opacity:1"/><stop id="stop686" offset=".163" style="stop-color:#b62e28;stop-opacity:1"/><stop id="stop688" offset=".213" style="stop-color:#cc2927;stop-opacity:1"/><stop id="stop690" offset=".271" style="stop-color:#dc2325;stop-opacity:1"/><stop id="stop692" offset=".344" style="stop-color:#e81f25;stop-opacity:1"/><stop id="stop694" offset=".478" style="stop-color:#ed1c24;stop-opacity:1"/><stop id="stop696" offset="1" style="stop-color:#f7931e;stop-opacity:1"/></linearGradient><linearGradient id="linearGradient4939" x1="133.363" x2="109.59" y1="244.089" y2="278.455" gradientUnits="userSpaceOnUse" xlink:href="#SVGID_47_"/><linearGradient id="SVGID_47_" x1="133.363" x2="109.59" y1="244.089" y2="278.455" gradientUnits="userSpaceOnUse"><stop id="stop669" offset=".478" style="stop-color:#39b54a;stop-opacity:1"/><stop id="stop671" offset="1" style="stop-color:#1b75bc;stop-opacity:1"/></linearGradient><linearGradient id="linearGradient5755" x1="74.096" x2="74.096" y1="283.013" y2="240.299" gradientUnits="userSpaceOnUse"><stop id="stop5757" offset="0" style="stop-color:#1f1f20;stop-opacity:1"/><stop id="stop5759" offset="1" style="stop-color:#a5a8aa;stop-opacity:1"/></linearGradient><linearGradient id="linearGradient5762" x1="97.754" x2="97.754" y1="283.013" y2="240.299" gradientUnits="userSpaceOnUse"><stop id="stop5764" offset="0" style="stop-color:#1f1f20;stop-opacity:1"/><stop id="stop5766" offset="1" style="stop-color:#a5a8aa;stop-opacity:1"/></linearGradient><linearGradient id="linearGradient5769" x1="121.411" x2="121.411" y1="283.013" y2="240.299" gradientUnits="userSpaceOnUse"><stop id="stop5771" offset="0" style="stop-color:#1f1f20;stop-opacity:1"/><stop id="stop5773" offset="1" style="stop-color:#a5a8aa;stop-opacity:1"/></linearGradient><linearGradient id="linearGradient5776" x1="49.035" x2="49.035" y1="283.013" y2="240.299" gradientUnits="userSpaceOnUse"><stop id="stop5778" offset="0" style="stop-color:#1f1f20;stop-opacity:1"/><stop id="stop5780" offset="1" style="stop-color:#a5a8aa;stop-opacity:1"/></linearGradient><linearGradient id="linearGradient5783" x1="20.309" x2="20.309" y1="283.013" y2="240.299" gradientUnits="userSpaceOnUse"><stop id="stop5785" offset="0" style="stop-color:#1f1f20;stop-opacity:1"/><stop id="stop5787" offset="1" style="stop-color:#a5a8aa;stop-opacity:1"/></linearGradient><linearGradient id="linearGradient6769" x1="133.363" x2="109.59" y1="244.089" y2="278.455" gradientUnits="userSpaceOnUse" xlink:href="#SVGID_47_"/><linearGradient id="linearGradient6771" x1="86.049" x2="62.275" y1="244.088" y2="278.455" gradientUnits="userSpaceOnUse" xlink:href="#SVGID_48_"/><linearGradient id="linearGradient6773" x1="109.707" x2="85.934" y1="244.088" y2="278.454" gradientUnits="userSpaceOnUse" xlink:href="#SVGID_49_"/><linearGradient id="linearGradient6775" x1="76.1" x2="76.1" y1="283.072" y2="240.267" gradientUnits="userSpaceOnUse" xlink:href="#SVGID_52_"/><linearGradient id="linearGradient6777" x1="98.498" x2="98.498" y1="283.072" y2="240.267" gradientUnits="userSpaceOnUse" xlink:href="#SVGID_52_"/><linearGradient id="linearGradient6779" x1="121.411" x2="121.411" y1="283.013" y2="240.299" gradientUnits="userSpaceOnUse" xlink:href="#SVGID_52_"/><linearGradient id="linearGradient6781" x1="63.476" x2="63.476" y1="1065.494" y2="1022.689" gradientTransform="matrix(0.55113038,0,0,0.55113038,0.04919778,465.54229)" gradientUnits="userSpaceOnUse" xlink:href="#SVGID_52_"/><linearGradient id="linearGradient6783" x1="20.92" x2="20.92" y1="283.072" y2="240.267" gradientUnits="userSpaceOnUse" xlink:href="#SVGID_52_"/></defs><metadata id="metadata5797"/><g id="layer1" transform="translate(0,-1028.3621)"><g id="g6759" transform="matrix(0.94818195,0,0,0.94818195,-4.1722525,53.487656)"><polygon id="polygon673" points="138.439 244.146 114.823 278.591 104.378 278.591 127.999 244.146" transform="matrix(0.55113038,0,0,0.55113038,7.5642154,896.75892)" style="fill:url(#linearGradient6769)"/><polygon id="polygon698" points="91.126 244.146 67.51 278.591 57.062 278.591 80.68 244.146" transform="matrix(0.55113038,0,0,0.55113038,7.5642154,896.75892)" style="fill:url(#linearGradient6771)"/><polygon id="polygon717" points="114.783 244.146 91.167 278.591 80.722 278.591 104.342 244.146" transform="matrix(0.55113038,0,0,0.55113038,7.5642154,896.75892)" style="fill:url(#linearGradient6773)"/><polygon id="polygon726" points="91.126 278.591 67.51 244.146 57.065 244.146 80.68 278.591" transform="matrix(0.55113038,0,0,0.55113038,7.5642154,896.75892)" style="fill:url(#linearGradient6775);fill-opacity:1"/><polygon id="polygon733" points="114.787 278.591 91.167 244.146 80.722 244.146 104.342 278.591" transform="matrix(0.55113038,0,0,0.55113038,7.5642154,896.75892)" style="fill:url(#linearGradient6777);fill-opacity:1"/><polygon id="polygon740" points="138.443 278.591 114.823 244.146 104.378 244.146 127.999 278.591" transform="matrix(0.55113038,0,0,0.55113038,7.5642154,896.75892)" style="fill:url(#linearGradient6779)"/><rect id="rect747" width="4.924" height="18.984" x="32.127" y="1031.315" style="fill:url(#linearGradient6781);fill-opacity:1"/><polygon id="polygon754" points="31.74 258.245 31.74 278.591 40.618 278.591 40.618 244.146 30.988 244.146 20.307 261.321 9.631 244.146 0 244.146 0 278.591 8.76 278.591 8.76 258.42 20.076 275.596 20.307 275.596" transform="matrix(0.55113038,0,0,0.55113038,7.5642154,896.75892)" style="fill:url(#linearGradient6783);fill-opacity:1"/></g></g></svg>