<svg xmlns="http://www.w3.org/2000/svg" xmlns:osb="http://www.openswatchbook.org/uri/2009/osb" xmlns:svg="http://www.w3.org/2000/svg" xmlns:xlink="http://www.w3.org/1999/xlink" id="svg2" width="32" height="32" version="1.1" style="display:inline"><title id="title5647">Mixxx 1.12+ iconset</title><defs id="defs28"><linearGradient id="linearGradient5515" osb:paint="solid"><stop style="stop-color:#000;stop-opacity:1" id="stop5517" offset="0"/></linearGradient><linearGradient id="linearGradient4942"><stop style="stop-color:#f60;stop-opacity:1" id="stop4944" offset="0"/><stop style="stop-color:#de5800;stop-opacity:1" id="stop4946" offset="1"/></linearGradient><linearGradient id="linearGradient5695-6"><stop style="stop-color:#3c3c3c;stop-opacity:1" id="stop5697-6" offset="0"/><stop style="stop-color:#000;stop-opacity:1" id="stop5699-7" offset="1"/></linearGradient><filter id="filter6108" width="1.5" height="1.5" x="-.25" y="-.25" color-interpolation-filters="sRGB"><feGaussianBlur id="feGaussianBlur6110" in="SourceAlpha" result="blur" stdDeviation=".6"/><feColorMatrix id="feColorMatrix6112" result="bluralpha" type="matrix" values="1 0 0 0 0 0 1 0 0 0 0 0 1 0 0 0 0 0 0.4 0"/><feOffset id="feOffset6114" dx="1" dy="1" in="bluralpha" result="offsetBlur"/><feMerge id="feMerge6116"><feMergeNode id="feMergeNode6118" in="offsetBlur"/><feMergeNode id="feMergeNode6120" in="SourceGraphic"/></feMerge></filter><linearGradient id="linearGradient5695-4"><stop style="stop-color:#646464;stop-opacity:1" id="stop5697-7" offset="0"/><stop style="stop-color:#000;stop-opacity:1" id="stop5699-6" offset="1"/></linearGradient><linearGradient id="linearGradient4942-73"><stop style="stop-color:#f60;stop-opacity:1" id="stop4944-6" offset="0"/><stop style="stop-color:#de5800;stop-opacity:1" id="stop4946-6" offset="1"/></linearGradient><linearGradient id="linearGradient4942-5"><stop style="stop-color:#f60;stop-opacity:1" id="stop4944-9" offset="0"/><stop style="stop-color:#de5800;stop-opacity:1" id="stop4946-5" offset="1"/></linearGradient><filter style="color-interpolation-filters:sRGB" id="filter6108-7" width="1.5" height="1.5" x="-.25" y="-.25"><feGaussianBlur id="feGaussianBlur6110-5" in="SourceAlpha" result="blur" stdDeviation=".6"/><feColorMatrix id="feColorMatrix6112-3" result="bluralpha" type="matrix" values="1 0 0 0 0 0 1 0 0 0 0 0 1 0 0 0 0 0 0.4 0"/><feOffset id="feOffset6114-5" dx="1" dy="1" in="bluralpha" result="offsetBlur"/><feMerge id="feMerge6116-6"><feMergeNode id="feMergeNode6118-2" in="offsetBlur"/><feMergeNode id="feMergeNode6120-9" in="SourceGraphic"/></feMerge></filter><filter style="color-interpolation-filters:sRGB" id="filter6108-70" width="1.5" height="1.5" x="-.25" y="-.25"><feGaussianBlur id="feGaussianBlur6110-9" in="SourceAlpha" result="blur" stdDeviation=".6"/><feColorMatrix id="feColorMatrix6112-36" result="bluralpha" type="matrix" values="1 0 0 0 0 0 1 0 0 0 0 0 1 0 0 0 0 0 0.4 0"/><feOffset id="feOffset6114-0" dx="1" dy="1" in="bluralpha" result="offsetBlur"/><feMerge id="feMerge6116-62"><feMergeNode id="feMergeNode6118-6" in="offsetBlur"/><feMergeNode id="feMergeNode6120-1" in="SourceGraphic"/></feMerge></filter><filter style="color-interpolation-filters:sRGB" id="filter1927" width="1.5" height="1.5" x="-.25" y="-.25"><feGaussianBlur id="feGaussianBlur1915" in="SourceAlpha" result="blur" stdDeviation=".6"/><feColorMatrix id="feColorMatrix1917" result="bluralpha" type="matrix" values="1 0 0 0 0 0 1 0 0 0 0 0 1 0 0 0 0 0 0.4 0"/><feOffset id="feOffset1919" dx="1" dy="1" in="bluralpha" result="offsetBlur"/><feMerge id="feMerge1925"><feMergeNode id="feMergeNode1921" in="offsetBlur"/><feMergeNode id="feMergeNode1923" in="SourceGraphic"/></feMerge></filter><filter style="color-interpolation-filters:sRGB" id="filter6108-8" width="1.5" height="1.5" x="-.25" y="-.25"><feGaussianBlur id="feGaussianBlur6110-7" in="SourceAlpha" result="blur" stdDeviation=".6"/><feColorMatrix id="feColorMatrix6112-9" result="bluralpha" type="matrix" values="1 0 0 0 0 0 1 0 0 0 0 0 1 0 0 0 0 0 0.4 0"/><feOffset id="feOffset6114-2" dx="1" dy="1" in="bluralpha" result="offsetBlur"/><feMerge id="feMerge6116-0"><feMergeNode id="feMergeNode6118-23" in="offsetBlur"/><feMergeNode id="feMergeNode6120-7" in="SourceGraphic"/></feMerge></filter><filter style="color-interpolation-filters:sRGB" id="filter6108-89" width="1.5" height="1.5" x="-.25" y="-.25"><feGaussianBlur id="feGaussianBlur6110-73" in="SourceAlpha" result="blur" stdDeviation=".6"/><feColorMatrix id="feColorMatrix6112-6" result="bluralpha" type="matrix" values="1 0 0 0 0 0 1 0 0 0 0 0 1 0 0 0 0 0 0.4 0"/><feOffset id="feOffset6114-1" dx="1" dy="1" in="bluralpha" result="offsetBlur"/><feMerge id="feMerge6116-2"><feMergeNode id="feMergeNode6118-9" in="offsetBlur"/><feMergeNode id="feMergeNode6120-3" in="SourceGraphic"/></feMerge></filter><linearGradient id="linearGradient6060" x1="16.197" x2="16.197" y1="-13" y2="15" gradientTransform="translate(7.2768052,14.338622)" gradientUnits="userSpaceOnUse" xlink:href="#linearGradient5695-6"/><filter style="color-interpolation-filters:sRGB" id="filter6108-9" width="1.5" height="1.5" x="-.25" y="-.25"><feGaussianBlur id="feGaussianBlur6110-3" in="SourceAlpha" result="blur" stdDeviation=".6"/><feColorMatrix id="feColorMatrix6112-90" result="bluralpha" type="matrix" values="1 0 0 0 0 0 1 0 0 0 0 0 1 0 0 0 0 0 0.4 0"/><feOffset id="feOffset6114-8" dx="1" dy="1" in="bluralpha" result="offsetBlur"/><feMerge id="feMerge6116-8"><feMergeNode id="feMergeNode6118-5" in="offsetBlur"/><feMergeNode id="feMergeNode6120-0" in="SourceGraphic"/></feMerge></filter><linearGradient id="linearGradient2391" x1="21.539" x2="21.539" y1=".921" y2="29.228" gradientTransform="translate(-2)" gradientUnits="userSpaceOnUse" xlink:href="#linearGradient5695-6"/><filter style="color-interpolation-filters:sRGB" id="filter6108-3" width="1.5" height="1.5" x="-.25" y="-.25"><feGaussianBlur id="feGaussianBlur6110-8" in="SourceAlpha" result="blur" stdDeviation=".6"/><feColorMatrix id="feColorMatrix6112-5" result="bluralpha" type="matrix" values="1 0 0 0 0 0 1 0 0 0 0 0 1 0 0 0 0 0 0.4 0"/><feOffset id="feOffset6114-6" dx="1" dy="1" in="bluralpha" result="offsetBlur"/><feMerge id="feMerge6116-1"><feMergeNode id="feMergeNode6118-1" in="offsetBlur"/><feMergeNode id="feMergeNode6120-5" in="SourceGraphic"/></feMerge></filter><filter style="color-interpolation-filters:sRGB" id="filter2701" width="1.5" height="1.5" x="-.25" y="-.25"><feGaussianBlur id="feGaussianBlur2689" in="SourceAlpha" result="blur" stdDeviation=".6"/><feColorMatrix id="feColorMatrix2691" result="bluralpha" type="matrix" values="1 0 0 0 0 0 1 0 0 0 0 0 1 0 0 0 0 0 0.4 0"/><feOffset id="feOffset2693" dx="1" dy="1" in="bluralpha" result="offsetBlur"/><feMerge id="feMerge2699"><feMergeNode id="feMergeNode2695" in="offsetBlur"/><feMergeNode id="feMergeNode2697" in="SourceGraphic"/></feMerge></filter><filter style="color-interpolation-filters:sRGB" id="filter2722" width="1.5" height="1.5" x="-.25" y="-.25"><feGaussianBlur id="feGaussianBlur2710" in="SourceAlpha" result="blur" stdDeviation=".6"/><feColorMatrix id="feColorMatrix2712" result="bluralpha" type="matrix" values="1 0 0 0 0 0 1 0 0 0 0 0 1 0 0 0 0 0 0.4 0"/><feOffset id="feOffset2714" dx="1" dy="1" in="bluralpha" result="offsetBlur"/><feMerge id="feMerge2720"><feMergeNode id="feMergeNode2716" in="offsetBlur"/><feMergeNode id="feMergeNode2718" in="SourceGraphic"/></feMerge></filter><linearGradient id="linearGradient2391-9" x1="21.539" x2="21.539" y1=".921" y2="29.228" gradientTransform="matrix(0.90156055,0,0,0.76810268,-3.1700028,3.7103526)" gradientUnits="userSpaceOnUse" xlink:href="#linearGradient5695-6"/><linearGradient id="linearGradient7581" x1="16" x2="16" y1="2" y2="30" gradientUnits="userSpaceOnUse" xlink:href="#linearGradient5695-6"/><filter style="color-interpolation-filters:sRGB" id="filter6108-31" width="1.5" height="1.5" x="-.25" y="-.25"><feGaussianBlur id="feGaussianBlur6110-75" in="SourceAlpha" result="blur" stdDeviation=".6"/><feColorMatrix id="feColorMatrix6112-96" result="bluralpha" type="matrix" values="1 0 0 0 0 0 1 0 0 0 0 0 1 0 0 0 0 0 0.4 0"/><feOffset id="feOffset6114-21" dx="1" dy="1" in="bluralpha" result="offsetBlur"/><feMerge id="feMerge6116-7"><feMergeNode id="feMergeNode6118-8" in="offsetBlur"/><feMergeNode id="feMergeNode6120-57" in="SourceGraphic"/></feMerge></filter></defs><metadata id="metadata4"/><path style="color:#000;display:inline;overflow:visible;visibility:visible;fill:url(#linearGradient7581);fill-opacity:1;fill-rule:nonzero;stroke:none;stroke-width:2;marker:none;enable-background:accumulate" id="ic_preferences_sampler" d="M 3,2 C 2.446,2 2,2.4658846 2,3.0625 v 25.875 C 2,29.534115 2.446,30 3,30 h 26 c 0.554,0 1,-0.465885 1,-1.0625 V 3.0625 C 30,2.4658846 29.554,2 29,2 Z m 7.5,2 h 17 C 27.777,4 28,4.223 28,4.5 v 3 C 28,7.777 27.777,8 27.5,8 h -17 C 10.223,8 10,7.777 10,7.5 v -3 C 10,4.223 10.223,4 10.5,4 Z m -7,2 h 4 C 7.777,6 8,6.223 8,6.5 v 1 C 8,7.777 7.777,8 7.5,8 h -4 C 3.223,8 3,7.777 3,7.5 v -1 C 3,6.223 3.223,6 3.5,6 Z M 3,12 h 2 v 2 H 3 Z m 3.5,0 h 3 c 0.277,0 0.5,0.223 0.5,0.5 v 3 C 10,15.777 9.777,16 9.5,16 h -3 C 6.223,16 6,15.777 6,15.5 v -3 C 6,12.223 6.223,12 6.5,12 Z m 6,0 h 3 c 0.277,0 0.5,0.223 0.5,0.5 v 3 c 0,0.277 -0.223,0.5 -0.5,0.5 h -3 C 12.223,16 12,15.777 12,15.5 v -3 C 12,12.223 12.223,12 12.5,12 Z m 6,0 h 3 c 0.277,0 0.5,0.223 0.5,0.5 v 3 c 0,0.277 -0.223,0.5 -0.5,0.5 h -3 C 18.223,16 18,15.777 18,15.5 v -3 C 18,12.223 18.223,12 18.5,12 Z m 6,0 h 3 c 0.277,0 0.5,0.223 0.5,0.5 v 3 c 0,0.277 -0.223,0.5 -0.5,0.5 h -3 C 24.223,16 24,15.777 24,15.5 v -3 C 24,12.223 24.223,12 24.5,12 Z M 3,18 h 2 v 2 H 3 Z m 3.5,0 h 3 c 0.277,0 0.5,0.223 0.5,0.5 v 3 C 10,21.777 9.777,22 9.5,22 h -3 C 6.223,22 6,21.777 6,21.5 v -3 C 6,18.223 6.223,18 6.5,18 Z m 6,0 h 3 c 0.277,0 0.5,0.223 0.5,0.5 v 3 c 0,0.277 -0.223,0.5 -0.5,0.5 h -3 C 12.223,22 12,21.777 12,21.5 v -3 C 12,18.223 12.223,18 12.5,18 Z m 6,0 h 3 c 0.277,0 0.5,0.223 0.5,0.5 v 3 c 0,0.277 -0.223,0.5 -0.5,0.5 h -3 C 18.223,22 18,21.777 18,21.5 v -3 C 18,18.223 18.223,18 18.5,18 Z m 6,0 h 3 c 0.277,0 0.5,0.223 0.5,0.5 v 3 c 0,0.277 -0.223,0.5 -0.5,0.5 h -3 C 24.223,22 24,21.777 24,21.5 v -3 C 24,18.223 24.223,18 24.5,18 Z M 3,24 h 2 v 2 H 3 Z m 3.5,0 h 3 c 0.277,0 0.5,0.223 0.5,0.5 v 3 C 10,27.777 9.777,28 9.5,28 h -3 C 6.223,28 6,27.777 6,27.5 v -3 C 6,24.223 6.223,24 6.5,24 Z m 6,0 h 3 c 0.277,0 0.5,0.223 0.5,0.5 v 3 c 0,0.277 -0.223,0.5 -0.5,0.5 h -3 C 12.223,28 12,27.777 12,27.5 v -3 C 12,24.223 12.223,24 12.5,24 Z m 6,0 h 3 c 0.277,0 0.5,0.223 0.5,0.5 v 3 c 0,0.277 -0.223,0.5 -0.5,0.5 h -3 C 18.223,28 18,27.777 18,27.5 v -3 C 18,24.223 18.223,24 18.5,24 Z m 6,0 h 3 c 0.277,0 0.5,0.223 0.5,0.5 v 3 c 0,0.277 -0.223,0.5 -0.5,0.5 h -3 C 24.223,28 24,27.777 24,27.5 v -3 C 24,24.223 24.223,24 24.5,24 Z"/></svg>