<svg xmlns="http://www.w3.org/2000/svg" id="svg2" width="160" height="40" version="1.1"><defs id="defs4"><clipPath id="z"><path id="path52" d="M 0,0 H 358.182 V 89.118 H 0 V 0 z" transform="translate(0 .028)"/></clipPath><linearGradient id="w" x1="74.993" x2="13.486" y1="-.146" y2="88.767" gradientTransform="matrix(.4467 0 0 .4487 123.41 .013019)" gradientUnits="userSpaceOnUse"><stop id="stop7" offset=".478" stop-color="#39b549"/><stop id="stop9" offset="1" stop-color="#1a76bc"/></linearGradient><linearGradient id="x" x1="74.998" x2="13.488" y1="-.15" y2="88.767" gradientTransform="matrix(.4467 0 0 .4487 68.726 .013019)" gradientUnits="userSpaceOnUse"><stop id="stop12" offset="0" stop-color="#381f1f"/><stop id="stop14" offset=".002" stop-color="#3a1f20"/><stop id="stop16" offset=".038" stop-color="#5b2825"/><stop id="stop18" offset=".076" stop-color="#7c2f28"/><stop id="stop20" offset=".117" stop-color="#9b2e28"/><stop id="stop22" offset=".163" stop-color="#b62c28"/><stop id="stop24" offset=".213" stop-color="#cc2626"/><stop id="stop26" offset=".271" stop-color="#dc2225"/><stop id="stop28" offset=".344" stop-color="#e81f25"/><stop id="stop30" offset=".478" stop-color="#ed1b26"/><stop id="stop32" offset="1" stop-color="#f7921e"/></linearGradient><linearGradient id="y" x1="74.992" x2="13.485" y1="-.147" y2="88.766" gradientTransform="matrix(.4467 0 0 .4487 96.071 .013019)" gradientUnits="userSpaceOnUse"><stop id="stop35" offset="0" stop-color="#120e1e"/><stop id="stop37" offset=".023" stop-color="#1b1426"/><stop id="stop39" offset=".145" stop-color="#442349"/><stop id="stop41" offset=".255" stop-color="#652866"/><stop id="stop43" offset=".351" stop-color="#7c287b"/><stop id="stop45" offset=".429" stop-color="#8b2589"/><stop id="stop47" offset=".478" stop-color="#91268f"/><stop id="stop49" offset="1" stop-color="#ed1b26"/></linearGradient><linearGradient id="linearGradient8101" x2="0" y1=".028" y2="89.146" gradientUnits="userSpaceOnUse"><stop id="stop8095" offset="0" stop-color="#ffd235"/><stop id="stop8097" offset="1" stop-color="#feb30a"/></linearGradient></defs><path id="path197" fill="url(#w)" d="m120.63 40 27.298-39.987h12.066l-27.293 39.987h-12.071z"/><path id="path199" fill="url(#x)" d="m65.946 40 27.296-39.987h12.073l-27.293 39.987h-12.076z"/><path id="path201" fill="url(#y)" d="m93.291 40 27.298-39.987h12.067l-27.294 39.987h-12.071z"/><g id="g203" fill="url(#linearGradient8101)" clip-path="url(#z)" transform="matrix(.4467 0 0 .4487 0 .00032263)"><path id="path205" d="M 88.123,89.118 27.023,0 H 0 l 61.096,89.118 h 27.027 z" transform="translate(147.64 .028)"/><path id="path207" d="M 88.133,89.118 27.022,0 H 0 l 61.11,89.118 h 27.023 z" transform="translate(208.84 .028)"/><path id="path209" d="M 88.134,89.118 27.023,0 H 0 l 61.111,89.118 h 27.023 z" transform="translate(270.05 .028)"/><path id="path211" fill-rule="evenodd" d="M 0,0 H 23.115 V 89.118 H 0 V 0 z" transform="translate(115.31 .028)"/><path id="path213" d="m22.665 89.118v-52.188l29.276 44.438h0.597l29.58-44.89v52.64h22.969v-89.118h-24.916l-27.633 44.437-27.619-44.437h-24.919v89.118h22.665z" transform="translate(0 .028)"/></g></svg>