<svg xmlns="http://www.w3.org/2000/svg" id="svg2" width="164" height="5" version="1.1"><g id="layer4"><rect id="use5185-3" width="164" height="5" color="#000"/><g id="g11605" fill="#333"><rect id="use5185" width="1" height="5" x="1" color="#000"/><rect id="use5187" width="1" height="5" x="3" color="#000"/><rect id="use5189" width="1" height="5" x="5" color="#000"/><rect id="use5191" width="1" height="5" x="7" color="#000"/><rect id="use5193" width="1" height="5" x="9" color="#000"/><rect id="use5195" width="1" height="5" x="11" color="#000"/><rect id="use5197" width="1" height="5" x="13" color="#000"/><rect id="use5199" width="1" height="5" x="15" color="#000"/><rect id="use5201" width="1" height="5" x="17" color="#000"/><rect id="use5203" width="1" height="5" x="19" color="#000"/><rect id="use5205" width="1" height="5" x="21" color="#000"/><rect id="use5207" width="1" height="5" x="23" color="#000"/><rect id="use5209" width="1" height="5" x="25" color="#000"/><rect id="use5211" width="1" height="5" x="27" color="#000"/><rect id="use5213" width="1" height="5" x="29" color="#000"/><rect id="use5215" width="1" height="5" x="31" color="#000"/><rect id="use5217" width="1" height="5" x="33" color="#000"/><rect id="use5219" width="1" height="5" x="35" color="#000"/><rect id="use5221" width="1" height="5" x="37" color="#000"/><rect id="use5223" width="1" height="5" x="39" color="#000"/><rect id="use5225" width="1" height="5" x="41" color="#000"/><rect id="use5227" width="1" height="5" x="43" color="#000"/><rect id="use5229" width="1" height="5" x="45" color="#000"/><rect id="use5231" width="1" height="5" x="47" color="#000"/><rect id="use5233" width="1" height="5" x="49" color="#000"/><rect id="use5235" width="1" height="5" x="51" color="#000"/><rect id="use5237" width="1" height="5" x="53" color="#000"/><rect id="use5239" width="1" height="5" x="55" color="#000"/><rect id="use5241" width="1" height="5" x="57" color="#000"/><rect id="use5243" width="1" height="5" x="59" color="#000"/><rect id="use5245" width="1" height="5" x="61" color="#000"/><rect id="use5247" width="1" height="5" x="63" color="#000"/><rect id="use5249" width="1" height="5" x="65" color="#000"/><rect id="use5251" width="1" height="5" x="67" color="#000"/><rect id="use5253" width="1" height="5" x="69" color="#000"/><rect id="use5255" width="1" height="5" x="71" color="#000"/><rect id="use5257" width="1" height="5" x="73" color="#000"/><rect id="use5259" width="1" height="5" x="75" color="#000"/><rect id="use5261" width="1" height="5" x="77" color="#000"/><rect id="use5263" width="1" height="5" x="79" color="#000"/><rect id="use5265" width="1" height="5" x="81" color="#000"/><rect id="use5267" width="1" height="5" x="83" color="#000"/><rect id="use5269" width="1" height="5" x="85" color="#000"/><rect id="use5271" width="1" height="5" x="87" color="#000"/><rect id="use5273" width="1" height="5" x="89" color="#000"/><rect id="use5275" width="1" height="5" x="91" color="#000"/><rect id="use5277" width="1" height="5" x="93" color="#000"/><rect id="use5279" width="1" height="5" x="95" color="#000"/><rect id="use5281" width="1" height="5" x="97" color="#000"/><rect id="use5283" width="1" height="5" x="99" color="#000"/><rect id="use5285" width="1" height="5" x="101" color="#000"/><rect id="use5287" width="1" height="5" x="103" color="#000"/><rect id="use5289" width="1" height="5" x="105" color="#000"/><rect id="use5291" width="1" height="5" x="107" color="#000"/><rect id="use5293" width="1" height="5" x="109" color="#000"/><rect id="use5295" width="1" height="5" x="111" color="#000"/><rect id="use5297" width="1" height="5" x="113" color="#000"/><rect id="use5299" width="1" height="5" x="115" color="#000"/><rect id="use5301" width="1" height="5" x="117" color="#000"/><rect id="use5303" width="1" height="5" x="119" color="#000"/><rect id="use5305" width="1" height="5" x="121" color="#000"/><rect id="use5307" width="1" height="5" x="123" color="#000"/><rect id="use5309" width="1" height="5" x="125" color="#000"/><rect id="use5311" width="1" height="5" x="127" color="#000"/><rect id="use5313" width="1" height="5" x="129" color="#000"/><rect id="use5315" width="1" height="5" x="131" color="#000"/><rect id="use5317" width="1" height="5" x="133" color="#000"/><rect id="use5319" width="1" height="5" x="135" color="#000"/><rect id="use5321" width="1" height="5" x="137" color="#000"/><rect id="use5323" width="1" height="5" x="139" color="#000"/><rect id="use5325" width="1" height="5" x="141" color="#000"/><rect id="use5327" width="1" height="5" x="143" color="#000"/><rect id="use5329" width="1" height="5" x="145" color="#000"/><rect id="use5331" width="1" height="5" x="147" color="#000"/><rect id="use5333" width="1" height="5" x="149" color="#000"/><rect id="use5335" width="1" height="5" x="151" color="#000"/><rect id="use5337" width="1" height="5" x="153" color="#000"/><rect id="use5339" width="1" height="5" x="155" color="#000"/><rect id="use5341" width="1" height="5" x="157" color="#000"/><rect id="use5343" width="1" height="5" x="159" color="#000"/><rect id="use5345" width="1" height="5" x="161" color="#000"/><rect id="use5347" width="1" height="5" x="163" color="#000"/></g></g></svg>