<svg xmlns="http://www.w3.org/2000/svg" id="svg2" width="31" height="3" version="1.1"><g id="layer1" transform="translate(0 -1049.4)"><rect id="use4024" width="3" height="1" x="1049.4" y="-31" color="#000" transform="rotate(90)"/><rect id="use4026" width="3" height="1" x="1049.4" y="-29" color="#000" transform="rotate(90)"/><rect id="use4028" width="3" height="1" x="1049.4" y="-27" color="#000" transform="rotate(90)"/><rect id="use4030" width="3" height="1" x="1049.4" y="-25" color="#000" transform="rotate(90)"/><rect id="use4032" width="3" height="1" x="1049.4" y="-23" color="#000" transform="rotate(90)"/><rect id="use4034" width="3" height="1" x="1049.4" y="-21" color="#000" transform="rotate(90)"/><rect id="use4036" width="3" height="1" x="1049.4" y="-19" color="#000" transform="rotate(90)"/><rect id="use4038" width="3" height="1" x="1049.4" y="-17" color="#000" transform="rotate(90)"/><rect id="use4040" width="3" height="1" x="1049.4" y="-15" color="#000" transform="rotate(90)"/><rect id="use4042" width="3" height="1" x="1049.4" y="-13" color="#000" transform="rotate(90)"/><rect id="use4044" width="3" height="1" x="1049.4" y="-11" color="#000" transform="rotate(90)"/><rect id="use4046" width="3" height="1" x="1049.4" y="-9" color="#000" transform="rotate(90)"/><rect id="use4048" width="3" height="1" x="1049.4" y="-7" color="#000" transform="rotate(90)"/><rect id="use4050" width="3" height="1" x="1049.4" y="-5" color="#000" transform="rotate(90)"/><rect id="use4052" width="3" height="1" x="1049.4" y="-3" color="#000" transform="rotate(90)"/><rect id="use4054" width="3" height="1" x="1049.4" y="-1" color="#000" transform="rotate(90)"/></g></svg>