<svg xmlns="http://www.w3.org/2000/svg" id="svg2" width="31" height="3" version="1.1"><g id="layer1" transform="translate(0 -1049.4)"><rect id="use4024" width="3" height="1" x="1049.4" y="-31" fill="#f0f" color="#000" transform="rotate(90)"/><rect id="use4026" width="3" height="1" x="1049.4" y="-29" fill="#f0f" color="#000" transform="rotate(90)"/><rect id="use4028" width="3" height="1" x="1049.4" y="-27" fill="#f0f" color="#000" transform="rotate(90)"/><rect id="use4030" width="3" height="1" x="1049.4" y="-25" fill="#ff0" color="#000" transform="rotate(90)"/><rect id="use4032" width="3" height="1" x="1049.4" y="-23" fill="#ff0" color="#000" transform="rotate(90)"/><rect id="use4034" width="3" height="1" x="1049.4" y="-21" fill="#ff0" color="#000" transform="rotate(90)"/><rect id="use4036" width="3" height="1" x="1049.4" y="-19" fill="#ff0" color="#000" transform="rotate(90)"/><rect id="use4038" width="3" height="1" x="1049.4" y="-17" fill="#ff0" color="#000" transform="rotate(90)"/><rect id="use4040" width="3" height="1" x="1049.4" y="-15" fill="#ff0" color="#000" transform="rotate(90)"/><rect id="use4042" width="3" height="1" x="1049.4" y="-13" fill="#0f0" color="#000" transform="rotate(90)"/><rect id="use4044" width="3" height="1" x="1049.4" y="-11" fill="#0f0" color="#000" transform="rotate(90)"/><rect id="use4046" width="3" height="1" x="1049.4" y="-9" fill="#0f0" color="#000" transform="rotate(90)"/><rect id="use4048" width="3" height="1" x="1049.4" y="-7" fill="#0f0" color="#000" transform="rotate(90)"/><rect id="use4050" width="3" height="1" x="1049.4" y="-5" fill="#0f0" color="#000" transform="rotate(90)"/><rect id="use4052" width="3" height="1" x="1049.4" y="-3" fill="#0f0" color="#000" transform="rotate(90)"/><rect id="use4054" width="3" height="1" x="1049.4" y="-1" fill="#0f0" color="#000" transform="rotate(90)"/></g></svg>