<svg xmlns="http://www.w3.org/2000/svg" xmlns:xlink="http://www.w3.org/1999/xlink" id="svg2" width="102" height="24" version="1.1"><defs id="defs4"><clipPath id="z"><path id="path52" d="M 0,0 H 358.182 V 89.118 H 0 V 0 z" transform="translate(0 .028)"/></clipPath><clipPath id="L"><path id="path130" d="M 0,0 H 88.123 V 89.118 H 0 V 0 z" transform="translate(208.82)"/></clipPath><clipPath id="O"><path id="path143" d="M 0,0 H 88.123 V 89.118 H 0 V 0 z" transform="translate(270.03)"/></clipPath><linearGradient id="w" x1="74.993" x2="13.486" y1="-.146" y2="88.767" gradientTransform="matrix(.26802 0 0 .26922 76.878 .0075382)" gradientUnits="userSpaceOnUse"><stop id="stop7" offset=".478" stop-color="#39b549"/><stop id="stop9" offset="1" stop-color="#1a76bc"/></linearGradient><linearGradient id="x" x1="74.998" x2="13.488" y1="-.15" y2="88.767" gradientTransform="matrix(.26802 0 0 .26922 44.068 .0075382)" gradientUnits="userSpaceOnUse"><stop id="stop12" offset="0" stop-color="#381f1f"/><stop id="stop14" offset=".002" stop-color="#3a1f20"/><stop id="stop16" offset=".038" stop-color="#5b2825"/><stop id="stop18" offset=".076" stop-color="#7c2f28"/><stop id="stop20" offset=".117" stop-color="#9b2e28"/><stop id="stop22" offset=".163" stop-color="#b62c28"/><stop id="stop24" offset=".213" stop-color="#cc2626"/><stop id="stop26" offset=".271" stop-color="#dc2225"/><stop id="stop28" offset=".344" stop-color="#e81f25"/><stop id="stop30" offset=".478" stop-color="#ed1b26"/><stop id="stop32" offset="1" stop-color="#f7921e"/></linearGradient><linearGradient id="y" x1="74.992" x2="13.485" y1="-.147" y2="88.766" gradientTransform="matrix(.26802 0 0 .26922 60.475 .0075382)" gradientUnits="userSpaceOnUse"><stop id="stop35" offset="0" stop-color="#120e1e"/><stop id="stop37" offset=".023" stop-color="#1b1426"/><stop id="stop39" offset=".145" stop-color="#442349"/><stop id="stop41" offset=".255" stop-color="#652866"/><stop id="stop43" offset=".351" stop-color="#7c287b"/><stop id="stop45" offset=".429" stop-color="#8b2589"/><stop id="stop47" offset=".478" stop-color="#91268f"/><stop id="stop49" offset="1" stop-color="#ed1b26"/></linearGradient><linearGradient id="A" x1="44.061" x2="44.061" y1=".247" y2="93.878" gradientTransform="translate(6.2234 .00029822)" gradientUnits="userSpaceOnUse"><stop id="stop55" offset="0" stop-color="#1f1f20"/><stop id="stop57" offset=".006" stop-color="#1f1f20"/><stop id="stop59" offset=".633" stop-color="#58595b"/><stop id="stop61" offset="1" stop-color="#a5a8aa"/></linearGradient><linearGradient id="B" x1="44.066" x2="44.066" y1=".247" y2="93.878" gradientTransform="translate(6.2234 .00029822)" gradientUnits="userSpaceOnUse"><stop id="stop64" offset="0" stop-color="#1f1f20"/><stop id="stop66" offset=".006" stop-color="#1f1f20"/><stop id="stop68" offset=".633" stop-color="#58595b"/><stop id="stop70" offset="1" stop-color="#a5a8aa"/></linearGradient><linearGradient id="C" x1="44.066" x2="44.066" y1=".247" y2="93.878" gradientTransform="translate(6.2234 .00029822)" gradientUnits="userSpaceOnUse"><stop id="stop73" offset="0" stop-color="#1f1f20"/><stop id="stop75" offset=".006" stop-color="#1f1f20"/><stop id="stop77" offset=".633" stop-color="#58595b"/><stop id="stop79" offset="1" stop-color="#a5a8aa"/></linearGradient><linearGradient id="D" x1="11.557" x2="11.557" y1=".247" y2="93.878" gradientTransform="translate(6.2234 .00029822)" gradientUnits="userSpaceOnUse"><stop id="stop82" offset="0" stop-color="#1f1f20"/><stop id="stop84" offset=".006" stop-color="#1f1f20"/><stop id="stop86" offset=".633" stop-color="#58595b"/><stop id="stop88" offset="1" stop-color="#a5a8aa"/></linearGradient><linearGradient id="E" x1="52.543" x2="52.543" y1=".247" y2="93.878" gradientTransform="translate(6.2234 .00029822)" gradientUnits="userSpaceOnUse"><stop id="stop91" offset="0" stop-color="#1f1f20"/><stop id="stop93" offset=".006" stop-color="#1f1f20"/><stop id="stop95" offset=".633" stop-color="#58595b"/><stop id="stop97" offset="1" stop-color="#a5a8aa"/></linearGradient><linearGradient id="F" x1=".348" x2=".348" y1="90.637" y2="-2.332" gradientTransform="matrix(.26803 0 0 .26923 41.413 .0075382)" gradientUnits="userSpaceOnUse"><stop id="stop100" offset="0" stop-color="#fff"/><stop id="stop102" offset="1"/></linearGradient><linearGradient id="G" x1=".348" x2=".348" y1="90.637" y2="-2.332" gradientTransform="matrix(.26803 0 0 .26923 32.465 .0075382)" gradientUnits="userSpaceOnUse"><stop id="stop105" offset="0" stop-color="#fff"/><stop id="stop107" offset="1"/></linearGradient><linearGradient id="H" x1=".313" x2=".313" y1="88.656" y2="1.172" gradientTransform="matrix(.26803 0 0 .26923 35.405 .0075379)" gradientUnits="userSpaceOnUse"><stop id="stop110" offset="0" stop-color="#fff"/><stop id="stop112" offset="1"/></linearGradient><linearGradient id="I" x1=".312" x2=".312" y1="88.656" y2="1.172" gradientTransform="matrix(.26803 0 0 .26923 4.5 .0075377)" gradientUnits="userSpaceOnUse"><stop id="stop115" offset="0" stop-color="#fff"/><stop id="stop117" offset="1"/></linearGradient><linearGradient id="J" x1="30.55" x2="30.55" y1="89.118" y2="-3.241" gradientTransform="matrix(.26803 0 0 .26923 51.314 .0075382)" gradientUnits="userSpaceOnUse"><stop id="stop120" offset="0" stop-color="#fff"/><stop id="stop122" offset="1"/></linearGradient><linearGradient id="K" x1="30.548" x2="30.548" y1="90.026" y2=".105" gradientTransform="matrix(.26803 0 0 .26923 44.071 .0075382)" gradientUnits="userSpaceOnUse"><stop id="stop125" offset="0" stop-color="#fff"/><stop id="stop127" offset="1"/></linearGradient><linearGradient id="M" x1="30.55" x2="30.55" y1="89.118" y2="-3.241" gradientTransform="translate(6.2234 .00029822)" gradientUnits="userSpaceOnUse"><stop id="stop133" offset="0" stop-color="#fff"/><stop id="stop135" offset="1"/></linearGradient><linearGradient id="N" x1="30.549" x2="30.549" y1="90.025" y2=".105" gradientTransform="translate(6.2234 .00029822)" gradientUnits="userSpaceOnUse"><stop id="stop138" offset="0" stop-color="#fff"/><stop id="stop140" offset="1"/></linearGradient><linearGradient id="P" x1="30.549" x2="30.549" y1="89.118" y2="-3.241" gradientTransform="translate(6.2234 .00029822)" gradientUnits="userSpaceOnUse"><stop id="stop146" offset="0" stop-color="#fff"/><stop id="stop148" offset="1"/></linearGradient><linearGradient id="Q" x1="30.549" x2="30.549" y1="90.025" y2=".105" gradientTransform="translate(6.2234 .00029822)" gradientUnits="userSpaceOnUse"><stop id="stop151" offset="0" stop-color="#fff"/><stop id="stop153" offset="1"/></linearGradient><linearGradient id="R" x1=".292" x2=".292" y1="52.64" y2="-37.899" gradientTransform="matrix(.26803 0 0 .26923 26.509 9.8282)" gradientUnits="userSpaceOnUse"><stop id="stop156" offset="0" stop-color="#fff"/><stop id="stop158" offset="1"/></linearGradient><linearGradient id="S" x1=".248" x2=".248" y1="52.916" y2="-35.326" gradientTransform="matrix(.26803 0 0 .26923 10.44 9.7539)" gradientUnits="userSpaceOnUse"><stop id="stop161" offset="0" stop-color="#fff"/><stop id="stop163" offset="1"/></linearGradient><linearGradient id="T" x1="27.626" x2="27.626" y1="89.12" y2=".13" gradientTransform="matrix(.26803 0 0 .26923 11.179 .0075382)" gradientUnits="userSpaceOnUse"><stop id="stop166" offset="0" stop-color="#fff"/><stop id="stop168" offset="1"/></linearGradient><linearGradient id="U" x1="29.726" x2="29.726" y1="53.389" y2="-36.621" gradientTransform="matrix(.26803 0 0 .26923 10.575 9.8282)" gradientUnits="userSpaceOnUse"><stop id="stop171" offset="0" stop-color="#fff"/><stop id="stop173" offset="1"/></linearGradient></defs><path id="path197" fill="url(#w)" d="m75.21 24 16.379-23.992h7.2398l-16.376 23.992h-7.2427z"/><path id="path199" fill="url(#x)" d="m42.4 24 16.378-23.992h7.2438l-16.376 23.992h-7.2457z"/><path id="path201" fill="url(#y)" d="m58.807 24 16.379-23.992h7.24l-16.376 23.992h-7.2424z"/><g id="g203" clip-path="url(#z)" transform="matrix(.26802 0 0 .26922 2.832 -8.03e-5)"><path id="path205" fill="url(#A)" d="M 88.123,89.118 27.023,0 H 0 l 61.096,89.118 h 27.027 z" transform="translate(147.64 .028)"/><path id="path207" fill="url(#B)" d="M 88.133,89.118 27.022,0 H 0 l 61.11,89.118 h 27.023 z" transform="translate(208.84 .028)"/><path id="path209" fill="url(#C)" d="M 88.134,89.118 27.023,0 H 0 l 61.111,89.118 h 27.023 z" transform="translate(270.05 .028)"/><path id="path211" fill="url(#D)" fill-rule="evenodd" d="M 0,0 H 23.115 V 89.118 H 0 V 0 z" transform="translate(115.31 .028)"/><path id="path213" fill="url(#E)" d="m22.665 89.118v-52.188l29.276 44.438h0.597l29.58-44.89v52.64h22.969v-89.118h-24.916l-27.633 44.437-27.619-44.437h-24.919v89.118h22.665z" transform="translate(0 .028)"/></g><path id="path215" fill="url(#F)" d="m39.932 24v-23.993h-0.18654l0.18654 23.993z"/><path id="path217" fill="url(#G)" d="m30.984 24v-23.993h-0.18681l0.18681 23.993z"/><path id="path219" fill="url(#H)" d="m33.904 24-0.16751-23.993v23.993h0.16751z"/><path id="path221" fill="url(#I)" d="m2.9995 24-0.16751-23.993v23.993h0.16751z"/><path id="path223" fill="url(#J)" d="m66.022 24-16.376-23.993 16.222 23.993h0.15438z"/><path id="path225" fill="url(#K)" d="m42.623 0.0074579h-0.22004l16.375 23.993-16.155-23.993z"/><g id="g227" clip-path="url(#L)" transform="matrix(.26802 0 0 .26922 2.832 -8.03e-5)"><path id="path229" fill="url(#M)" d="M 61.1,89.118 0,0 60.525,89.118 H 61.1 z" transform="translate(235.85)"/><path id="path231" fill="url(#N)" d="M 0.822,0 H 0 L 61.097,89.118 0.822,0 z" transform="translate(208.82)"/></g><g id="g233" clip-path="url(#O)" transform="matrix(.26802 0 0 .26922 2.8387 .0074579)"><path id="path235" fill="url(#P)" d="M 61.1,89.118 0,0 60.525,89.118 H 61.1 z" transform="translate(297.06)"/><path id="path237" fill="url(#Q)" d="M 0.821,0 H 0 L 61.097,89.118 0.821,0 z" transform="translate(270.03)"/></g><path id="path239" fill="url(#R)" d="m24.841 9.8281v14.172h0.15626l-0.15626-14.172z"/><path id="path241" fill="url(#S)" d="m8.9054 24v-14.05l-0.13321-0.19599 0.13321 14.246z"/><path id="path243" fill="url(#T)" d="m16.914 12.147 7.4054-12.139-7.4062 11.963-7.4025-11.963 7.4033 12.139z"/><path id="path245" fill="url(#U)" d="m8.9067 9.9498 7.8466 11.964h0.16001l7.9281-12.085-8.0004 11.999-7.9342-11.878z"/></svg>