<svg xmlns="http://www.w3.org/2000/svg" id="svg3776" width="20" height="6" version="1.1"><g id="layer1" fill="#d1d1d1" transform="translate(0 -1046.4)"><path id="path3797" d="m6 3c0 1.1046-0.89543 2-2 2s-2-0.89543-2-2 0.89543-2 2-2 2 0.89543 2 2z" color="#000" transform="matrix(.77552 0 0 .77552 .89791 1047)"/><path id="path3797-6" d="m6 3c0 1.1046-0.89543 2-2 2s-2-0.89543-2-2 0.89543-2 2-2 2 0.89543 2 2z" color="#000" transform="matrix(.77552 0 0 .77552 4.8979 1047)"/><path id="path3797-7" d="m6 3c0 1.1046-0.89543 2-2 2s-2-0.89543-2-2 0.89543-2 2-2 2 0.89543 2 2z" color="#000" transform="matrix(.77552 0 0 .77552 8.8979 1047)"/><path id="path3797-6-5" d="m6 3c0 1.1046-0.89543 2-2 2s-2-0.89543-2-2 0.89543-2 2-2 2 0.89543 2 2z" color="#000" transform="matrix(.77552 0 0 .77552 12.898 1047)"/></g></svg>