<svg xmlns="http://www.w3.org/2000/svg" width="8" height="103" version="1.1"><g display="none" transform="translate(0,-2)"><rect width="984.29" height="655.71" x="-512.86" y="-273.57" fill="#252525" color="#000" display="inline"/></g><rect width="8" height="103" fill="#181818" color="#000"/><g fill="#ff0"><rect width="8" height="1" y="2" color="#000"/><rect width="8" height="1" y="4" color="#000"/><rect width="8" height="1" y="6" color="#000"/><rect width="8" height="1" y="8" color="#000"/><rect width="8" height="1" y="10" color="#000"/><rect width="8" height="1" y="12" color="#000"/></g><rect width="8" height="1" y="14" fill="#bcfc00" color="#000"/><rect width="8" height="1" y="16" fill="#24d900" color="#000"/><g fill="#2bff01"><rect width="8" height="1" y="18" color="#000"/><rect width="8" height="1" y="20" color="#000"/><rect width="8" height="1" y="22" color="#000"/><rect width="8" height="1" y="24" color="#000"/><rect width="8" height="1" y="26" color="#000"/><rect width="8" height="1" y="28" color="#000"/><rect width="8" height="1" y="30" color="#000"/><rect width="8" height="1" y="32" color="#000"/><rect width="8" height="1" y="34" color="#000"/><rect width="8" height="1" y="36" color="#000"/><rect width="8" height="1" y="38" color="#000"/><rect width="8" height="1" y="40" color="#000"/><rect width="8" height="1" y="42" color="#000"/><rect width="8" height="1" y="44" color="#000"/><rect width="8" height="1" y="46" color="#000"/><rect width="8" height="1" y="48" color="#000"/><rect width="8" height="1" y="50" color="#000"/><rect width="8" height="1" y="52" color="#000"/><rect width="8" height="1" y="54" color="#000"/><rect width="8" height="1" y="56" color="#000"/><rect width="8" height="1" y="58" color="#000"/><rect width="8" height="1" y="60" color="#000"/><rect width="8" height="1" y="62" color="#000"/><rect width="8" height="1" y="64" color="#000"/><rect width="8" height="1" y="66" color="#000"/><rect width="8" height="1" y="68" color="#000"/><rect width="8" height="1" y="70" color="#000"/><rect width="8" height="1" y="72" color="#000"/><rect width="8" height="1" y="74" color="#000"/><rect width="8" height="1" y="76" color="#000"/><rect width="8" height="1" y="78" color="#000"/><rect width="8" height="1" y="80" color="#000"/><rect width="8" height="1" y="82" color="#000"/><rect width="8" height="1" y="84" color="#000"/><rect width="8" height="1" y="86" color="#000"/><rect width="8" height="1" y="88" color="#000"/><rect width="8" height="1" y="90" color="#000"/><rect width="8" height="1" y="92" color="#000"/><rect width="8" height="1" y="94" color="#000"/><rect width="8" height="1" y="96" color="#000"/><rect width="8" height="1" y="98" color="#000"/><rect width="8" height="1" y="100" color="#000"/></g><rect width="8" height="1" fill="#ff0" color="#000"/><rect width="8" height="1" y="102" fill="#2bff01" color="#000"/></svg>