<svg xmlns="http://www.w3.org/2000/svg" xmlns:osb="http://www.openswatchbook.org/uri/2009/osb" xmlns:svg="http://www.w3.org/2000/svg" xmlns:xlink="http://www.w3.org/1999/xlink" id="svg2" width="32" height="32" version="1.1" style="display:inline"><title id="title5647">Mixxx 1.12+ iconset</title><defs id="defs28"><linearGradient id="linearGradient5515" osb:paint="solid"><stop style="stop-color:#000;stop-opacity:1" id="stop5517" offset="0"/></linearGradient><linearGradient id="linearGradient4942"><stop style="stop-color:#f60;stop-opacity:1" id="stop4944" offset="0"/><stop style="stop-color:#de5800;stop-opacity:1" id="stop4946" offset="1"/></linearGradient><linearGradient id="linearGradient5695-6"><stop style="stop-color:#3c3c3c;stop-opacity:1" id="stop5697-6" offset="0"/><stop style="stop-color:#000;stop-opacity:1" id="stop5699-7" offset="1"/></linearGradient><linearGradient id="linearGradient5695-4"><stop style="stop-color:#646464;stop-opacity:1" id="stop5697-7" offset="0"/><stop style="stop-color:#000;stop-opacity:1" id="stop5699-6" offset="1"/></linearGradient><linearGradient id="linearGradient4942-73"><stop style="stop-color:#f60;stop-opacity:1" id="stop4944-6" offset="0"/><stop style="stop-color:#de5800;stop-opacity:1" id="stop4946-6" offset="1"/></linearGradient><linearGradient id="linearGradient4942-5"><stop style="stop-color:#f60;stop-opacity:1" id="stop4944-9" offset="0"/><stop style="stop-color:#de5800;stop-opacity:1" id="stop4946-5" offset="1"/></linearGradient><linearGradient id="linearGradient5114" x1="16" x2="16" y1="8" y2="32" gradientUnits="userSpaceOnUse" xlink:href="#linearGradient4942"/><linearGradient id="linearGradient5122" x1="12" x2="12" y1="8" y2="32" gradientUnits="userSpaceOnUse" xlink:href="#linearGradient4942"/></defs><metadata id="metadata4"/><g style="display:inline" id="ic_library_crates"><g style="display:inline" id="ic_library_locked"><path id="path8889" d="m 9.5,16 c 0,0 0.012953,-5 0,-6.5 -0.012957,-1.5004487 0.4612148,-5.9608363 6.5,-6 6,-0.038912 6.495685,4.4997009 6.5,7 0.0026,1.5 0,5.5 0,5.5" style="fill:none;stroke:url(#linearGradient5114);stroke-width:3;stroke-linecap:butt;stroke-linejoin:miter;stroke-miterlimit:4;stroke-dasharray:none;stroke-opacity:1"/><path id="rect8885" d="m 6,16 c -1,0 -2,1 -2,2 v 10 c 0,1 1,2 2,2 h 20 c 1,0 2,-1 2,-2 V 18 c 0,-1 -1,-2 -2,-2 z m 3.03125,2 H 23 c 0.522127,0 0.997189,0.476401 0.997189,1 0,0.523599 -0.475062,1 -0.997189,1 H 9.03125 C 8.4410263,20 8,19.478827 8,19 8,18.521173 8.4261918,18 9.03125,18 Z m 0,4 H 23 c 0.522127,0 0.997189,0.476401 0.997189,1 0,0.523599 -0.475062,1 -0.997189,1 H 9.03125 C 8.4896665,24 8,23.478827 8,23 8,22.521173 8.4836539,22 9.03125,22 Z m 0,4 H 23 c 0.522127,0 0.997189,0.476401 0.997189,1 0,0.523599 -0.475062,1 -0.997189,1 H 9.03125 C 8.4799385,28 8,27.478827 8,27 8,26.521173 8.4473629,26 9.03125,26 Z" style="color:#000;font-style:normal;font-variant:normal;font-weight:400;font-stretch:normal;font-size:medium;line-height:normal;font-family:Sans;-inkscape-font-specification:Sans;text-indent:0;text-align:start;text-decoration:none;text-decoration-line:none;letter-spacing:normal;word-spacing:normal;text-transform:none;writing-mode:lr-tb;direction:ltr;baseline-shift:baseline;text-anchor:start;display:inline;overflow:visible;visibility:visible;fill:url(#linearGradient5122);fill-opacity:1;fill-rule:nonzero;stroke:none;stroke-width:2;marker:none;enable-background:accumulate"/></g></g></svg>