<svg xmlns="http://www.w3.org/2000/svg" xmlns:osb="http://www.openswatchbook.org/uri/2009/osb" xmlns:svg="http://www.w3.org/2000/svg" id="svg2" width="23" height="12" version="1.1" style="display:inline"><title id="title5647">Mixxx 1.12+ iconset</title><defs id="defs28"><linearGradient id="linearGradient5515" osb:paint="solid"><stop style="stop-color:#000;stop-opacity:1" id="stop5517" offset="0"/></linearGradient><linearGradient id="linearGradient4942"><stop style="stop-color:#f60;stop-opacity:1" id="stop4944" offset="0"/><stop style="stop-color:#de5800;stop-opacity:1" id="stop4946" offset="1"/></linearGradient><linearGradient id="linearGradient5695-6"><stop style="stop-color:#3c3c3c;stop-opacity:1" id="stop5697-6" offset="0"/><stop style="stop-color:#000;stop-opacity:1" id="stop5699-7" offset="1"/></linearGradient><linearGradient id="linearGradient5695-4"><stop style="stop-color:#646464;stop-opacity:1" id="stop5697-7" offset="0"/><stop style="stop-color:#000;stop-opacity:1" id="stop5699-6" offset="1"/></linearGradient><linearGradient id="linearGradient4942-73"><stop style="stop-color:#f60;stop-opacity:1" id="stop4944-6" offset="0"/><stop style="stop-color:#de5800;stop-opacity:1" id="stop4946-6" offset="1"/></linearGradient><linearGradient id="linearGradient4942-5"><stop style="stop-color:#f60;stop-opacity:1" id="stop4944-9" offset="0"/><stop style="stop-color:#de5800;stop-opacity:1" id="stop4946-5" offset="1"/></linearGradient></defs><metadata id="metadata4"/><g style="display:inline" id="ic_library_crates" transform="translate(0,-20)"><g id="ic_library_unchecked" transform="matrix(0.415098,0,0,0.415098,-1.660392,19.54706)" style="display:inline"><g style="display:inline" id="style_library_preview_pause" transform="matrix(2.4090697,0,0,2.4090697,81.09022,-75.999057)"><desc id="desc3883">Preview button in library</desc><path style="display:inline;fill:#979797;fill-opacity:.5;stroke:none" id="path4203" d="m 582.29442,615.15754 -23.31845,0 11.65922,-20.19437 z" transform="matrix(0,0.30019152,-0.29711255,0,167.77103,-133.29985)"/><g id="g4247" transform="matrix(0.85714286,0,0,0.85714286,-6.9556151,23.428571)" style="fill:#979797;fill-opacity:.5"><path id="path4249" d="m -26,32 c -3.376146,0 -5.8125,2.420091 -5.8125,5.75 -0.02885,0.04115 -0.0269,0.04484 0,0.0625 v 2.09375 C -31.95368,40.251454 -32,40.690868 -32,41.1875 c 0,1.08133 0.15281,1.96875 1.21875,1.96875 v -3.9375 c -0.05826,0 -0.103077,0.02604 -0.15625,0.03125 v -1.5 c 0,-0.35788 0.03255,-0.711959 0.09375,-1.03125 0.05746,-0.308575 0.173694,-0.595956 0.28125,-0.875 0.707406,-1.67368 2.381799,-2.625 4.5625,-2.625 2.180238,0 3.886417,0.95132 4.59375,2.625 0.235778,0.557893 0.34375,1.19049 0.34375,1.90625 v 1.46875 c -0.05502,-0.0057 -0.09568,0 -0.15625,0 V 43.125 c 1.065786,0 1.21875,-0.856631 1.21875,-1.9375 0,-0.488809 -0.02108,-0.938349 -0.15625,-1.28125 V 37.75 C -20.15625,34.420091 -22.624315,32 -26,32 Z" transform="matrix(1.1666667,0,0,1.1666667,8.1148843,-27.333333)" style="fill:#979797;fill-opacity:.5;fill-rule:nonzero;stroke:none"/><rect id="rect4251" width="2.5" height="6" x="-20.218" y="18" rx="1" ry=".2" style="color:#000;display:inline;overflow:visible;visibility:visible;fill:#979797;fill-opacity:.5;fill-rule:evenodd;stroke:#979797;stroke-width:0;stroke-linecap:butt;stroke-linejoin:miter;stroke-miterlimit:4;stroke-dasharray:none;stroke-dashoffset:0;stroke-opacity:.25098039;marker:none;enable-background:accumulate"/><rect style="color:#000;display:inline;overflow:visible;visibility:visible;fill:#979797;fill-opacity:.5;fill-rule:evenodd;stroke:#979797;stroke-width:0;stroke-linecap:butt;stroke-linejoin:miter;stroke-miterlimit:4;stroke-dasharray:none;stroke-dashoffset:0;stroke-opacity:.25098039;marker:none;enable-background:accumulate" id="rect4253" width="2.5" height="6" x="-26.718" y="18" rx="1" ry=".2"/></g></g></g></g></svg>