<svg xmlns="http://www.w3.org/2000/svg" xmlns:osb="http://www.openswatchbook.org/uri/2009/osb" xmlns:svg="http://www.w3.org/2000/svg" xmlns:xlink="http://www.w3.org/1999/xlink" id="svg2" width="32" height="32" version="1.1" style="display:inline"><title id="title5647">Mixxx 1.12+ iconset</title><defs id="defs28"><linearGradient id="linearGradient5515" osb:paint="solid"><stop style="stop-color:#000;stop-opacity:1" id="stop5517" offset="0"/></linearGradient><linearGradient id="linearGradient4942"><stop style="stop-color:#f60;stop-opacity:1" id="stop4944" offset="0"/><stop style="stop-color:#de5800;stop-opacity:1" id="stop4946" offset="1"/></linearGradient><linearGradient id="linearGradient5695-6"><stop style="stop-color:#3c3c3c;stop-opacity:1" id="stop5697-6" offset="0"/><stop style="stop-color:#000;stop-opacity:1" id="stop5699-7" offset="1"/></linearGradient><linearGradient id="linearGradient5695-4"><stop style="stop-color:#646464;stop-opacity:1" id="stop5697-7" offset="0"/><stop style="stop-color:#000;stop-opacity:1" id="stop5699-6" offset="1"/></linearGradient><linearGradient id="linearGradient4942-73"><stop style="stop-color:#f60;stop-opacity:1" id="stop4944-6" offset="0"/><stop style="stop-color:#de5800;stop-opacity:1" id="stop4946-6" offset="1"/></linearGradient><linearGradient id="linearGradient4942-5"><stop style="stop-color:#f60;stop-opacity:1" id="stop4944-9" offset="0"/><stop style="stop-color:#de5800;stop-opacity:1" id="stop4946-5" offset="1"/></linearGradient><linearGradient id="linearGradient5324" x1="15.942" x2="15.942" y1="8.029" y2="32.116" gradientTransform="scale(1.0036207,0.99639237)" gradientUnits="userSpaceOnUse" xlink:href="#linearGradient4942"/></defs><metadata id="metadata4"/><g style="display:inline" id="ic_library_crates"><path style="font-style:normal;font-variant:normal;font-weight:700;font-stretch:normal;font-size:37.86291122px;line-height:125%;font-family:Sans;-inkscape-font-specification:'Sans Bold';letter-spacing:0;word-spacing:0;display:inline;fill:url(#linearGradient5324);fill-opacity:1;stroke:none" id="ic_library_missingtracks" d="m 18.06,20 h -6.699 l 3.28e-4,-0.186841 c 0,0 0.204094,-1.897357 0.612304,-2.671053 0.408195,-0.785952 1.267896,-1.780687 2.579102,-2.98421 l 1.1875,-1.068422 c 0.705067,-0.638579 1.218412,-1.240332 1.540039,-1.805263 0.333973,-0.564892 0.500964,-1.129804 0.500977,-1.6947363 C 17.781237,8.7298468 17.484363,8.0605492 16.890625,7.5815799 16.296864,7.0903747 15.468088,6.844761 14.404297,6.8447378 13.402336,6.844761 12.31998,7.0535327 11.157226,7.4710536 9.9944611,7.8763389 8.7822227,8.484233 7.5205078,9.2947378 V 3.5105273 C 9.0172486,2.9947649 10.384109,2.6140635 11.621094,2.3684221 12.858065,2.1228359 14.051749,2.000029 15.202149,2.000001 c 3.018215,2.8e-5 5.318995,0.6140625 6.902344,1.8421052 1.583314,1.2158144 2.37498,2.9965145 2.375,5.3421053 -2e-5,1.2035285 -0.24123,2.2842285 -0.723633,3.2421045 -0.48244,0.945631 -1.305031,1.964929 -2.467773,3.057895 l -1.1875,1.050001 c -0.841161,0.761416 -1.391616,1.37545 -1.651368,1.842105 -0.259779,0.454397 -0.389662,0.957905 -0.389649,1.510526 H 18.06 M 11.360995,24 h 6.639 v 6 l -6.638671,1e-6 L 11.360995,24"/></g></svg>