<svg xmlns="http://www.w3.org/2000/svg" xmlns:osb="http://www.openswatchbook.org/uri/2009/osb" xmlns:svg="http://www.w3.org/2000/svg" xmlns:xlink="http://www.w3.org/1999/xlink" id="svg2" width="32" height="32" version="1.1" style="display:inline"><title id="title5647">Mixxx 1.12+ iconset</title><defs id="defs28"><linearGradient id="linearGradient5515" osb:paint="solid"><stop style="stop-color:#000;stop-opacity:1" id="stop5517" offset="0"/></linearGradient><linearGradient id="linearGradient4942"><stop style="stop-color:#f60;stop-opacity:1" id="stop4944" offset="0"/><stop style="stop-color:#de5800;stop-opacity:1" id="stop4946" offset="1"/></linearGradient><linearGradient id="linearGradient5695-6"><stop style="stop-color:#3c3c3c;stop-opacity:1" id="stop5697-6" offset="0"/><stop style="stop-color:#000;stop-opacity:1" id="stop5699-7" offset="1"/></linearGradient><linearGradient id="linearGradient5695-4"><stop style="stop-color:#646464;stop-opacity:1" id="stop5697-7" offset="0"/><stop style="stop-color:#000;stop-opacity:1" id="stop5699-6" offset="1"/></linearGradient><linearGradient id="linearGradient4942-73"><stop style="stop-color:#f60;stop-opacity:1" id="stop4944-6" offset="0"/><stop style="stop-color:#de5800;stop-opacity:1" id="stop4946-6" offset="1"/></linearGradient><linearGradient id="linearGradient4942-5"><stop style="stop-color:#f60;stop-opacity:1" id="stop4944-9" offset="0"/><stop style="stop-color:#de5800;stop-opacity:1" id="stop4946-5" offset="1"/></linearGradient><linearGradient id="linearGradient2134" x1="12" x2="12" y1="2" y2="30" gradientUnits="userSpaceOnUse" xlink:href="#linearGradient4942"/></defs><metadata id="metadata4"/><g id="g17478" style="display:inline;fill:url(#linearGradient2134);fill-opacity:1"><path style="color:#000;display:inline;overflow:visible;visibility:visible;opacity:1;fill:url(#linearGradient2134);fill-opacity:1;fill-rule:nonzero;stroke:none;stroke-width:2;stroke-linecap:round;stroke-linejoin:miter;stroke-miterlimit:4;stroke-dasharray:none;stroke-dashoffset:0;stroke-opacity:1;marker:none;enable-background:accumulate" id="rect17459" d="M 10,2 C 8.892,2 8,2.892 8,4 v 6 H 24 V 4 C 24,2.892 23.108,2 22,2 Z m 2.5,3 C 13.328427,5 14,5.6715729 14,6.5 14,7.3284271 13.328427,8 12.5,8 11.671573,8 11,7.3284271 11,6.5 11,5.6715729 11.671573,5 12.5,5 Z m 7,0 C 20.328427,5 21,5.6715729 21,6.5 21,7.3284271 20.328427,8 19.5,8 18.671573,8 18,7.3284271 18,6.5 18,5.6715729 18.671573,5 19.5,5 Z"/><rect id="rect4796-5" width="4" height="6" x="10" y="24" rx="1" ry="1" style="display:inline;fill:url(#linearGradient2134);fill-opacity:1;stroke:none"/><rect style="display:inline;fill:url(#linearGradient2134);fill-opacity:1;stroke:none" id="rect4798-3" width="4" height="6" x="18" y="24" rx="1" ry="1"/><rect id="rect4305-0" width="4" height="10" x="2" y="12" rx="1" ry="1" style="color:#000;display:inline;overflow:visible;visibility:visible;fill:url(#linearGradient2134);fill-opacity:1;fill-rule:nonzero;stroke:none;stroke-width:2;marker:none;enable-background:accumulate"/><path id="rect4319-1" d="M 8,12 V 13.15625 14 24.84375 C 8,25.490083 8.446,26 9,26 h 14 c 0.554,0 1,-0.509917 1,-1.15625 V 14 13.15625 12 H 23 9 Z" style="color:#000;display:inline;overflow:visible;visibility:visible;fill:url(#linearGradient2134);fill-opacity:1;fill-rule:nonzero;stroke:none;stroke-width:2;marker:none;enable-background:accumulate"/><rect style="color:#000;display:inline;overflow:visible;visibility:visible;fill:url(#linearGradient2134);fill-opacity:1;fill-rule:nonzero;stroke:none;stroke-width:2;marker:none;enable-background:accumulate" id="rect4330-9" width="4" height="10" x="26" y="12" rx="1" ry="1"/></g></svg>