<svg xmlns="http://www.w3.org/2000/svg" xmlns:svg="http://www.w3.org/2000/svg" id="Rekordbox_Logo_Vector_1_" width="32" height="32" x="0" y="0" enable-background="new 0 0 157.21 176.99" version="1.1" viewBox="0 0 32 32" xml:space="preserve"><metadata id="metadata12"/><path style="fill:#f60;fill-opacity:1;stroke:none;stroke-width:1;stroke-linejoin:round;stroke-miterlimit:4;stroke-dasharray:none;stroke-opacity:1" id="path4145" d="M 16.150391 1.5527344 L 3.5859375 8.8867188 L 3.65625 23.433594 L 16.289062 30.646484 L 28.851562 23.3125 L 28.78125 8.765625 L 16.150391 1.5527344 z M 16.230469 6.2441406 A 10.031586 9.7498009 0 0 1 24.371094 10.318359 L 20.119141 12.90625 A 5.1285076 5.0157929 0 0 0 16.173828 11.091797 A 5.1285076 5.0157929 0 0 0 12.082031 13.091797 L 7.8125 10.708984 A 10.031586 9.7498009 0 0 1 16.230469 6.2441406 z M 25.279297 11.810547 A 10.031586 9.7498009 0 0 1 26.261719 15.994141 A 10.031586 9.7498009 0 0 1 17.019531 25.708984 L 17.019531 21.048828 A 5.1285076 5.0157929 0 0 0 21.302734 16.107422 A 5.1285076 5.0157929 0 0 0 20.996094 14.416016 L 25.279297 11.810547 z M 6.953125 12.296875 L 11.255859 14.695312 A 5.1285076 5.0157929 0 0 0 11.046875 16.107422 A 5.1285076 5.0157929 0 0 0 15.273438 21.042969 L 15.273438 25.697266 A 10.031586 9.7498009 0 0 1 6.1992188 15.994141 A 10.031586 9.7498009 0 0 1 6.953125 12.296875 z"/></svg>