<svg xmlns="http://www.w3.org/2000/svg" xmlns:osb="http://www.openswatchbook.org/uri/2009/osb" xmlns:svg="http://www.w3.org/2000/svg" xmlns:xlink="http://www.w3.org/1999/xlink" id="svg2" width="32" height="32" version="1.1" style="display:inline"><title id="title5647">Mixxx 1.12+ iconset</title><defs id="defs28"><linearGradient id="linearGradient5515" osb:paint="solid"><stop style="stop-color:#000;stop-opacity:1" id="stop5517" offset="0"/></linearGradient><linearGradient id="linearGradient4942"><stop style="stop-color:#f60;stop-opacity:1" id="stop4944" offset="0"/><stop style="stop-color:#de5800;stop-opacity:1" id="stop4946" offset="1"/></linearGradient><linearGradient id="linearGradient5695-6"><stop style="stop-color:#3c3c3c;stop-opacity:1" id="stop5697-6" offset="0"/><stop style="stop-color:#000;stop-opacity:1" id="stop5699-7" offset="1"/></linearGradient><linearGradient id="linearGradient5695-4"><stop style="stop-color:#646464;stop-opacity:1" id="stop5697-7" offset="0"/><stop style="stop-color:#000;stop-opacity:1" id="stop5699-6" offset="1"/></linearGradient><linearGradient id="linearGradient4942-73"><stop style="stop-color:#f60;stop-opacity:1" id="stop4944-6" offset="0"/><stop style="stop-color:#de5800;stop-opacity:1" id="stop4946-6" offset="1"/></linearGradient><linearGradient id="linearGradient4942-5"><stop style="stop-color:#f60;stop-opacity:1" id="stop4944-9" offset="0"/><stop style="stop-color:#de5800;stop-opacity:1" id="stop4946-5" offset="1"/></linearGradient><linearGradient id="linearGradient3356" x1="-4" x2="-4" y1="-29.857" y2="-13.857" gradientTransform="matrix(2.0225424,0,0,1.75,24.09017,56.25)" gradientUnits="userSpaceOnUse" xlink:href="#linearGradient4942"/><linearGradient id="linearGradient3354" x1="-34.16" x2="-34.16" y1="-32.905" y2="-6.238" gradientTransform="matrix(2.0225424,0,0,1.75,10.09017,26.25)" gradientUnits="userSpaceOnUse" xlink:href="#linearGradient4942"/></defs><metadata id="metadata4"/><g style="display:inline" id="ic_library_crates"><g style="display:inline" id="ic_library_rhythmbox"><path id="rect8124" d="M 8,2 C 6.892,2 6,2.892 6,4 v 24 c 0,1.108 0.892,2 2,2 h 16 c 1.108,0 2,-0.892 2,-2 V 4 C 26,2.892 25.108,2 24,2 Z m 8,4 c 3.313708,0 6,2.686292 6,6 0,3.313708 -2.686292,6 -6,6 -3.313709,0 -6,-2.686292 -6,-6 0,-3.313708 2.686291,-6 6,-6 z M 12.5,21 C 13.880712,21 15,22.119288 15,23.5 15,24.880712 13.880712,26 12.5,26 11.119288,26 10,24.880712 10,23.5 10,22.119288 11.119288,21 12.5,21 Z m 7,0 C 20.880712,21 22,22.119288 22,23.5 22,24.880712 20.880712,26 19.5,26 18.119288,26 17,24.880712 17,23.5 17,22.119288 18.119288,21 19.5,21 Z" style="color:#000;display:inline;overflow:visible;visibility:visible;fill:url(#linearGradient3356);fill-opacity:1;fill-rule:nonzero;stroke:none;stroke-width:2;marker:none;enable-background:accumulate"/><circle id="path8146" cx="-59" cy="-18" r="5" transform="matrix(0.6,0,0,0.6,51.4,22.8)" style="color:#000;display:inline;overflow:visible;visibility:visible;fill:url(#linearGradient3354);fill-opacity:1;fill-rule:nonzero;stroke:none;stroke-width:4;marker:none;enable-background:accumulate"/></g></g></svg>