<svg xmlns="http://www.w3.org/2000/svg" xmlns:osb="http://www.openswatchbook.org/uri/2009/osb" xmlns:svg="http://www.w3.org/2000/svg" xmlns:xlink="http://www.w3.org/1999/xlink" id="svg2" width="10" height="12" version="1.1" style="display:inline"><title id="title5647">Mixxx 1.12+ iconset</title><defs id="defs28"><linearGradient id="linearGradient5515" osb:paint="solid"><stop style="stop-color:#000;stop-opacity:1" id="stop5517" offset="0"/></linearGradient><linearGradient id="linearGradient4942"><stop style="stop-color:#f60;stop-opacity:1" id="stop4944" offset="0"/><stop style="stop-color:#de5800;stop-opacity:1" id="stop4946" offset="1"/></linearGradient><linearGradient id="linearGradient5695-6"><stop style="stop-color:#3c3c3c;stop-opacity:1" id="stop5697-6" offset="0"/><stop style="stop-color:#000;stop-opacity:1" id="stop5699-7" offset="1"/></linearGradient><linearGradient id="linearGradient5695-4"><stop style="stop-color:#646464;stop-opacity:1" id="stop5697-7" offset="0"/><stop style="stop-color:#000;stop-opacity:1" id="stop5699-6" offset="1"/></linearGradient><linearGradient id="linearGradient4942-73"><stop style="stop-color:#f60;stop-opacity:1" id="stop4944-6" offset="0"/><stop style="stop-color:#de5800;stop-opacity:1" id="stop4946-6" offset="1"/></linearGradient><linearGradient id="linearGradient4942-5"><stop style="stop-color:#f60;stop-opacity:1" id="stop4944-9" offset="0"/><stop style="stop-color:#de5800;stop-opacity:1" id="stop4946-5" offset="1"/></linearGradient><linearGradient id="linearGradient4257" x1="4" x2="28.091" y1="16.449" y2="16.449" gradientTransform="translate(62.635811,-72.272089)" gradientUnits="userSpaceOnUse" xlink:href="#linearGradient4942"/><linearGradient id="linearGradient4259" x1="16.045" x2="16.045" y1="8.318" y2="32.409" gradientTransform="translate(62.635811,-72.272089)" gradientUnits="userSpaceOnUse" xlink:href="#linearGradient4942"/><linearGradient id="linearGradient4261" x1="18.454" x2="18.454" y1="8.318" y2="32.409" gradientTransform="translate(62.635811,-72.272089)" gradientUnits="userSpaceOnUse" xlink:href="#linearGradient4942"/></defs><metadata id="metadata4"/><g style="display:inline" id="ic_library_crates" transform="translate(0,-20)"><g style="display:inline;stroke:url(#linearGradient4257)" id="ic_library_checked" transform="matrix(0.415098,0,0,0.415098,-1.660392,19.54706)"><path id="path8889-9" d="m 9.5,16.147849 c 0,0 0.012953,-5.299848 0,-6.8898022 C 9.487043,7.667617 9.9612148,2.9397423 16,2.8982299 c 6,-0.041246 6.495685,4.7695456 6.5,7.4197851 0.0026,1.589955 0,5.829834 0,5.829834" style="fill:none;stroke:url(#linearGradient4259);stroke-width:3.61360478;stroke-linecap:butt;stroke-linejoin:miter;stroke-miterlimit:4;stroke-dasharray:none;stroke-opacity:1"/><path id="rect8885-1" d="M 6.0075581,16 C 5.003779,16 4,17 4,18 v 10 c 0,1 1.003779,2 2.0075581,2 H 26.083139 c 1.003779,0 2.007558,-1 2.007558,-2 V 18 c 0,-1 -1.003779,-2 -2.007558,-2 z m 3.2826138,4.568256 H 23.311711 c 0.5241,0 1.000957,0.476401 1.000957,1 0,0.523599 -0.476857,1 -1.000957,1 H 9.2901719 c -0.5436301,0 -1.0351471,-0.52024 -1.0351471,-1 0,-0.47976 0.4854817,-1 1.0351471,-1 z m -0.2399087,4.81814 H 23.071802 c 0.5241,0 1.000957,0.476401 1.000957,1 0,0.523599 -0.476857,1 -1.000957,1 H 9.0502632 c -0.5533949,0 -1.0351471,-0.52024 -1.0351471,-1 0,-0.479761 0.4490535,-1 1.0351471,-1 z" style="color:#000;font-style:normal;font-variant:normal;font-weight:400;font-stretch:normal;font-size:medium;line-height:normal;font-family:Sans;-inkscape-font-specification:Sans;text-indent:0;text-align:start;text-decoration:none;text-decoration-line:none;letter-spacing:normal;word-spacing:normal;text-transform:none;writing-mode:lr-tb;direction:ltr;baseline-shift:baseline;text-anchor:start;display:inline;overflow:visible;visibility:visible;fill:url(#linearGradient4261);fill-opacity:1;fill-rule:nonzero;stroke:none;stroke-width:2;marker:none;enable-background:accumulate"/></g></g></svg>