<svg xmlns="http://www.w3.org/2000/svg" xmlns:osb="http://www.openswatchbook.org/uri/2009/osb" xmlns:svg="http://www.w3.org/2000/svg" xmlns:xlink="http://www.w3.org/1999/xlink" id="svg2" width="32" height="32" version="1.1" style="display:inline"><title id="title5647">Mixxx 1.12+ iconset</title><defs id="defs28"><linearGradient id="linearGradient5515" osb:paint="solid"><stop style="stop-color:#000;stop-opacity:1" id="stop5517" offset="0"/></linearGradient><linearGradient id="linearGradient4942"><stop style="stop-color:#f60;stop-opacity:1" id="stop4944" offset="0"/><stop style="stop-color:#de5800;stop-opacity:1" id="stop4946" offset="1"/></linearGradient><linearGradient id="linearGradient5695-6"><stop style="stop-color:#3c3c3c;stop-opacity:1" id="stop5697-6" offset="0"/><stop style="stop-color:#000;stop-opacity:1" id="stop5699-7" offset="1"/></linearGradient><linearGradient id="linearGradient5695-4"><stop style="stop-color:#646464;stop-opacity:1" id="stop5697-7" offset="0"/><stop style="stop-color:#000;stop-opacity:1" id="stop5699-6" offset="1"/></linearGradient><linearGradient id="linearGradient4942-73"><stop style="stop-color:#f60;stop-opacity:1" id="stop4944-6" offset="0"/><stop style="stop-color:#de5800;stop-opacity:1" id="stop4946-6" offset="1"/></linearGradient><linearGradient id="linearGradient4942-5"><stop style="stop-color:#f60;stop-opacity:1" id="stop4944-9" offset="0"/><stop style="stop-color:#de5800;stop-opacity:1" id="stop4946-5" offset="1"/></linearGradient><linearGradient id="linearGradient4344" x1="7.256" x2="84.583" y1="1005.465" y2="1005.465" gradientTransform="rotate(90,45.919353,1005.4652)" gradientUnits="userSpaceOnUse" xlink:href="#linearGradient4942"/><linearGradient id="linearGradient4346" x1="7.256" x2="84.583" y1="1005.465" y2="1005.465" gradientTransform="rotate(90,45.919353,555.10302)" gradientUnits="userSpaceOnUse" xlink:href="#linearGradient4942"/></defs><metadata id="metadata4"/><g style="display:inline" id="ic_library_crates"><g id="g3044" transform="matrix(0.41382385,0,0,0.41382388,-3.0025237,-400.08551)" style="fill:url(#linearGradient4344);fill-opacity:1;stroke-width:16.10991287"><path id="path3036" d="m 62.03125,529.3125 -26.8125,7.25 H 35.1875 v 10.90625 h 0.03125 v 19.5 c -1.173186,-0.70561 -2.611287,-1.125 -4.15625,-1.125 -3.979788,0 -7.1875,2.76364 -7.1875,6.15625 0,3.39261 3.207712,6.125 7.1875,6.125 3.979788,0 7.360598,-2.73536 7.21875,-6.125 l -0.0728,-1.7397 -0.177198,-23.5728 21.1875,-5.71875 V 562.5 c -1.237229,-0.85265 -2.816364,-1.375 -4.53125,-1.375 -3.979788,0 -7.1875,2.76364 -7.1875,6.15625 0,3.39261 3.207712,6.125 7.1875,6.125 3.979788,0 7.325069,-2.73239 7.325069,-6.125 0,-0.0317 5.62e-4,-0.0621 0,-0.0937 l 0.01868,-26.96875 v -9.65625 -1.25 z M 45.919352,516.43923 c -21.353967,0 -38.6637939,17.30983 -38.6637939,38.66379 0,21.35397 17.3098269,38.66379 38.6637939,38.66379 21.35397,0 38.663796,-17.30982 38.663796,-38.66379 0,-21.35396 -17.309826,-38.66379 -38.663796,-38.66379 z m 0,4.26724 c 18.99441,0 34.396555,15.40215 34.396555,34.39655 0,18.99441 -15.402145,34.39655 -34.396555,34.39655 -18.994408,0 -34.364225,-15.40214 -34.364225,-34.39655 0,-18.9944 15.369817,-34.39655 34.364225,-34.39655 z" transform="translate(0,450.36218)" style="color:#000;display:inline;overflow:visible;visibility:visible;fill:url(#linearGradient4346);fill-opacity:1;fill-rule:nonzero;stroke:none;stroke-width:99.8814621;marker:none;enable-background:accumulate"/></g></g></svg>